<?xml version="1.0" encoding="UTF-8" standalone="no"?>
<!DOCTYPE svg PUBLIC "-//W3C//DTD SVG 1.1//EN"
 "http://www.w3.org/Graphics/SVG/1.1/DTD/svg11.dtd">
<!-- Generated by graphviz version 2.42.4 (0)
 -->
<!-- Title: G Pages: 1 -->
<svg width="1583pt" height="256pt"
 viewBox="0.00 0.00 1583.00 256.00" xmlns="http://www.w3.org/2000/svg" xmlns:xlink="http://www.w3.org/1999/xlink">
<g id="graph0" class="graph" transform="scale(1 1) rotate(0) translate(18 238)">
<title>G</title>
<polygon fill="white" stroke="transparent" points="-18,18 -18,-238 1565,-238 1565,18 -18,18"/>
<!-- updates -->
<g id="node1" class="node">
<title>updates</title>
<path fill="#dfeaf4" stroke="#333333" d="M118,-212C118,-212 12,-212 12,-212 6,-212 0,-206 0,-200 0,-200 0,-188 0,-188 0,-182 6,-176 12,-176 12,-176 118,-176 118,-176 124,-176 130,-182 130,-188 130,-188 130,-200 130,-200 130,-206 124,-212 118,-212"/>
<text text-anchor="middle" x="65" y="-197" font-family="DejaVu Sans" font-size="10.00">4 striped update arrays</text>
<text text-anchor="middle" x="65" y="-186" font-family="DejaVu Sans" font-size="10.00">8&#45;byte HBM reads</text>
</g>
<!-- search -->
<g id="node2" class="node">
<title>search</title>
<path fill="#f7f7f4" stroke="#333333" d="M317,-212C317,-212 183,-212 183,-212 177,-212 171,-206 171,-200 171,-200 171,-188 171,-188 171,-182 177,-176 183,-176 183,-176 317,-176 317,-176 323,-176 329,-182 329,-188 329,-188 329,-200 329,-200 329,-206 323,-212 317,-212"/>
<text text-anchor="middle" x="250" y="-197" font-family="DejaVu Sans" font-size="10.00">4 x serial bin_search_direct</text>
<text text-anchor="middle" x="250" y="-186" font-family="DejaVu Sans" font-size="10.00">row offset + binary&#45;head AXI</text>
</g>
<!-- updates&#45;&gt;search -->
<g id="edge1" class="edge">
<title>updates&#45;&gt;search</title>
<path fill="none" stroke="#555555" d="M130,-194C139.9,-194 150.27,-194 160.58,-194"/>
<polygon fill="#555555" stroke="#555555" points="160.86,-197.5 170.86,-194 160.86,-190.5 160.86,-197.5"/>
</g>
<!-- axis0 -->
<g id="node3" class="node">
<title>axis0</title>
<path fill="#e8e8e2" stroke="#333333" d="M517,-186C517,-186 382,-186 382,-186 376,-186 370,-180 370,-174 370,-174 370,-162 370,-162 370,-156 376,-150 382,-150 382,-150 517,-150 517,-150 523,-150 529,-156 529,-162 529,-162 529,-174 529,-174 529,-180 523,-186 517,-186"/>
<text text-anchor="middle" x="449.5" y="-165.5" font-family="DejaVu Sans" font-size="10.00">4 finite registered AXIS FIFOs</text>
</g>
<!-- search&#45;&gt;axis0 -->
<g id="edge2" class="edge">
<title>search&#45;&gt;axis0</title>
<path fill="none" stroke="#555555" d="M329.06,-183.72C339.08,-182.4 349.41,-181.04 359.59,-179.7"/>
<polygon fill="#555555" stroke="#555555" points="360.26,-183.15 369.72,-178.37 359.34,-176.21 360.26,-183.15"/>
</g>
<!-- stats -->
<g id="node10" class="node">
<title>stats</title>
<path fill="#dcebd9" stroke="#333333" d="M1242,-146C1242,-146 1077,-146 1077,-146 1071,-146 1065,-140 1065,-134 1065,-134 1065,-122 1065,-122 1065,-116 1071,-110 1077,-110 1077,-110 1242,-110 1242,-110 1248,-110 1254,-116 1254,-122 1254,-122 1254,-134 1254,-134 1254,-140 1248,-146 1242,-146"/>
<text text-anchor="middle" x="1159.5" y="-125.5" font-family="DejaVu Sans" font-size="10.00">Cycle / byte / FIFO / AXI stall ledger</text>
</g>
<!-- search&#45;&gt;stats -->
<g id="edge10" class="edge">
<title>search&#45;&gt;stats</title>
<path fill="none" stroke="#555555" stroke-dasharray="5,2" d="M329.02,-209.05C365.22,-214.8 408.9,-220 448.5,-220 448.5,-220 448.5,-220 958,-220 1022.88,-220 1089.7,-179.71 1127.48,-152.45"/>
<polygon fill="#555555" stroke="#555555" points="1130.01,-154.93 1135.98,-146.18 1125.86,-149.3 1130.01,-154.93"/>
</g>
<!-- dispatch -->
<g id="node4" class="node">
<title>dispatch</title>
<path fill="#f7f7f4" stroke="#333333" d="M674,-134C674,-134 582,-134 582,-134 576,-134 570,-128 570,-122 570,-122 570,-110 570,-110 570,-104 576,-98 582,-98 582,-98 674,-98 674,-98 680,-98 686,-104 686,-110 686,-110 686,-122 686,-122 686,-128 680,-134 674,-134"/>
<text text-anchor="middle" x="628" y="-119" font-family="DejaVu Sans" font-size="10.00">Fixed&#45;order dispatch</text>
<text text-anchor="middle" x="628" y="-108" font-family="DejaVu Sans" font-size="10.00">cache/DDR + parity</text>
</g>
<!-- axis0&#45;&gt;dispatch -->
<g id="edge3" class="edge">
<title>axis0&#45;&gt;dispatch</title>
<path fill="none" stroke="#555555" d="M511.74,-149.96C527.32,-145.37 544.15,-140.41 560,-135.74"/>
<polygon fill="#555555" stroke="#555555" points="561.12,-139.06 569.73,-132.87 559.15,-132.34 561.12,-139.06"/>
</g>
<!-- axis0&#45;&gt;stats -->
<g id="edge11" class="edge">
<title>axis0&#45;&gt;stats</title>
<path fill="none" stroke="#555555" stroke-dasharray="5,2" d="M529.12,-171.82C559.67,-173 594.96,-174 627,-174 627,-174 627,-174 958,-174 1006.23,-174 1059.38,-161.2 1098.83,-149.1"/>
<polygon fill="#555555" stroke="#555555" points="1100.06,-152.38 1108.55,-146.05 1097.96,-145.7 1100.06,-152.38"/>
</g>
<!-- axis1 -->
<g id="node5" class="node">
<title>axis1</title>
<path fill="#e8e8e2" stroke="#333333" d="M837,-109C837,-109 739,-109 739,-109 733,-109 727,-103 727,-97 727,-97 727,-85 727,-85 727,-79 733,-73 739,-73 739,-73 837,-73 837,-73 843,-73 849,-79 849,-85 849,-85 849,-97 849,-97 849,-103 843,-109 837,-109"/>
<text text-anchor="middle" x="788" y="-88.5" font-family="DejaVu Sans" font-size="10.00">4 finite process FIFOs</text>
</g>
<!-- dispatch&#45;&gt;axis1 -->
<g id="edge4" class="edge">
<title>dispatch&#45;&gt;axis1</title>
<path fill="none" stroke="#555555" d="M686.04,-106.97C695.99,-105.4 706.43,-103.75 716.69,-102.13"/>
<polygon fill="#555555" stroke="#555555" points="717.51,-105.54 726.84,-100.52 716.42,-98.62 717.51,-105.54"/>
</g>
<!-- cache -->
<g id="node6" class="node">
<title>cache</title>
<path fill="#f7f7f4" stroke="#333333" d="M1001,-36C1001,-36 913,-36 913,-36 907,-36 901,-30 901,-24 901,-24 901,-12 901,-12 901,-6 907,0 913,0 913,0 1001,0 1001,0 1007,0 1013,-6 1013,-12 1013,-12 1013,-24 1013,-24 1013,-30 1007,-36 1001,-36"/>
<text text-anchor="middle" x="957" y="-21" font-family="DejaVu Sans" font-size="10.00">2 x direct&#45;cache CU</text>
<text text-anchor="middle" x="957" y="-10" font-family="DejaVu Sans" font-size="10.00">1 ordered lane / CU</text>
</g>
<!-- axis1&#45;&gt;cache -->
<g id="edge5" class="edge">
<title>axis1&#45;&gt;cache</title>
<path fill="none" stroke="#555555" d="M830.28,-72.96C852.96,-63.04 881.28,-50.66 905.3,-40.16"/>
<polygon fill="#555555" stroke="#555555" points="906.85,-43.3 914.62,-36.09 904.05,-36.89 906.85,-43.3"/>
</g>
<!-- ddr -->
<g id="node7" class="node">
<title>ddr</title>
<path fill="#f7f7f4" stroke="#333333" d="M1012,-94C1012,-94 902,-94 902,-94 896,-94 890,-88 890,-82 890,-82 890,-70 890,-70 890,-64 896,-58 902,-58 902,-58 1012,-58 1012,-58 1018,-58 1024,-64 1024,-70 1024,-70 1024,-82 1024,-82 1024,-88 1018,-94 1012,-94"/>
<text text-anchor="middle" x="957" y="-79" font-family="DejaVu Sans" font-size="10.00">2 x DDR CU</text>
<text text-anchor="middle" x="957" y="-68" font-family="DejaVu Sans" font-size="10.00">2 halves x 16 lanes / CU</text>
</g>
<!-- axis1&#45;&gt;ddr -->
<g id="edge6" class="edge">
<title>axis1&#45;&gt;ddr</title>
<path fill="none" stroke="#555555" d="M849.29,-85.58C859.17,-84.7 869.52,-83.77 879.73,-82.85"/>
<polygon fill="#555555" stroke="#555555" points="880.22,-86.32 889.86,-81.94 879.59,-79.35 880.22,-86.32"/>
</g>
<!-- axis1&#45;&gt;stats -->
<g id="edge12" class="edge">
<title>axis1&#45;&gt;stats</title>
<path fill="none" stroke="#555555" stroke-dasharray="5,2" d="M849.02,-99.85C862.49,-101.68 876.72,-103.51 890,-105 944.26,-111.08 1004.86,-116.4 1054.73,-120.38"/>
<polygon fill="#555555" stroke="#555555" points="1054.63,-123.89 1064.88,-121.19 1055.18,-116.91 1054.63,-123.89"/>
</g>
<!-- pma -->
<g id="node8" class="node">
<title>pma</title>
<path fill="#f4e4bf" stroke="#333333" d="M1211.5,-60.5C1211.5,-60.5 1107.5,-60.5 1107.5,-60.5 1101.5,-60.5 1095.5,-54.5 1095.5,-48.5 1095.5,-48.5 1095.5,-31.5 1095.5,-31.5 1095.5,-25.5 1101.5,-19.5 1107.5,-19.5 1107.5,-19.5 1211.5,-19.5 1211.5,-19.5 1217.5,-19.5 1223.5,-25.5 1223.5,-31.5 1223.5,-31.5 1223.5,-48.5 1223.5,-48.5 1223.5,-54.5 1217.5,-60.5 1211.5,-60.5"/>
<text text-anchor="middle" x="1159.5" y="-48.5" font-family="DejaVu Sans" font-size="10.00">Payload&#45;backed PMA</text>
<text text-anchor="middle" x="1159.5" y="-37.5" font-family="DejaVu Sans" font-size="10.00">HBM[0..3]</text>
<text text-anchor="middle" x="1159.5" y="-26.5" font-family="DejaVu Sans" font-size="10.00">64&#45;byte segment RMW</text>
</g>
<!-- cache&#45;&gt;pma -->
<g id="edge7" class="edge">
<title>cache&#45;&gt;pma</title>
<path fill="none" stroke="#555555" d="M1023.14,-25.15C1042.99,-27.33 1064.93,-29.73 1085.27,-31.96"/>
<polygon fill="#555555" stroke="#555555" points="1023.37,-21.65 1013.05,-24.04 1022.61,-28.61 1023.37,-21.65"/>
<polygon fill="#555555" stroke="#555555" points="1085.1,-35.47 1095.42,-33.08 1085.87,-28.51 1085.1,-35.47"/>
</g>
<!-- cache&#45;&gt;stats -->
<g id="edge13" class="edge">
<title>cache&#45;&gt;stats</title>
<path fill="none" stroke="#555555" stroke-dasharray="5,2" d="M1001.33,-36.09C1008.97,-39.55 1016.78,-43.26 1024,-47 1033.68,-52.01 1083.77,-82.38 1119.99,-104.46"/>
<polygon fill="#555555" stroke="#555555" points="1118.51,-107.66 1128.87,-109.88 1122.15,-101.68 1118.51,-107.66"/>
</g>
<!-- ddr&#45;&gt;pma -->
<g id="edge8" class="edge">
<title>ddr&#45;&gt;pma</title>
<path fill="none" stroke="#555555" d="M1034.3,-62.3C1051.01,-59.3 1068.66,-56.13 1085.25,-53.15"/>
<polygon fill="#555555" stroke="#555555" points="1033.43,-58.9 1024.21,-64.11 1034.67,-65.79 1033.43,-58.9"/>
<polygon fill="#555555" stroke="#555555" points="1086.2,-56.54 1095.42,-51.33 1084.96,-49.65 1086.2,-56.54"/>
</g>
<!-- ddr&#45;&gt;stats -->
<g id="edge14" class="edge">
<title>ddr&#45;&gt;stats</title>
<path fill="none" stroke="#555555" stroke-dasharray="5,2" d="M1024.21,-93.17C1041.8,-97.73 1060.99,-102.71 1079.21,-107.44"/>
<polygon fill="#555555" stroke="#555555" points="1078.36,-110.83 1088.92,-109.95 1080.12,-104.06 1078.36,-110.83"/>
</g>
<!-- oracle -->
<g id="node9" class="node">
<title>oracle</title>
<path fill="#dcebd9" stroke="#333333" d="M1535,-58C1535,-58 1400,-58 1400,-58 1394,-58 1388,-52 1388,-46 1388,-46 1388,-34 1388,-34 1388,-28 1394,-22 1400,-22 1400,-22 1535,-22 1535,-22 1541,-22 1547,-28 1547,-34 1547,-34 1547,-46 1547,-46 1547,-52 1541,-58 1535,-58"/>
<text text-anchor="middle" x="1467.5" y="-37.5" font-family="DejaVu Sans" font-size="10.00">Independent live&#45;edge oracle</text>
</g>
<!-- pma&#45;&gt;oracle -->
<g id="edge9" class="edge">
<title>pma&#45;&gt;oracle</title>
<path fill="none" stroke="#555555" d="M1223.53,-40C1268.05,-40 1328.34,-40 1377.72,-40"/>
<polygon fill="#555555" stroke="#555555" points="1377.76,-43.5 1387.76,-40 1377.76,-36.5 1377.76,-43.5"/>
<text text-anchor="middle" x="1321" y="-42.8" font-family="DejaVu Sans" font-size="9.00">decode final payload</text>
</g>
</g>
</svg>
