<?xml version="1.0" encoding="UTF-8" standalone="no"?>
<!DOCTYPE svg PUBLIC "-//W3C//DTD SVG 1.1//EN"
 "http://www.w3.org/Graphics/SVG/1.1/DTD/svg11.dtd">
<!-- Generated by graphviz version 2.42.4 (0)
 -->
<!-- Title: grasu_regraph_pma_native_sssp Pages: 1 -->
<svg width="2181pt" height="276pt"
 viewBox="0.00 0.00 2180.80 275.80" xmlns="http://www.w3.org/2000/svg" xmlns:xlink="http://www.w3.org/1999/xlink">
<g id="graph0" class="graph" transform="scale(1 1) rotate(0) translate(14.4 261.4)">
<title>grasu_regraph_pma_native_sssp</title>
<polygon fill="white" stroke="transparent" points="-14.4,14.4 -14.4,-261.4 2166.4,-261.4 2166.4,14.4 -14.4,14.4"/>
<!-- update -->
<g id="node1" class="node">
<title>update</title>
<path fill="#dfeaf4" stroke="#4a4a4a" d="M124,-196.5C124,-196.5 12,-196.5 12,-196.5 6,-196.5 0,-190.5 0,-184.5 0,-184.5 0,-167.5 0,-167.5 0,-161.5 6,-155.5 12,-155.5 12,-155.5 124,-155.5 124,-155.5 130,-155.5 136,-161.5 136,-167.5 136,-167.5 136,-184.5 136,-184.5 136,-190.5 130,-196.5 124,-196.5"/>
<text text-anchor="middle" x="68" y="-184.5" font-family="DejaVu Sans" font-size="10.00">GraSU update system</text>
<text text-anchor="middle" x="68" y="-173.5" font-family="DejaVu Sans" font-size="10.00">4 search CUs + dispatch</text>
<text text-anchor="middle" x="68" y="-162.5" font-family="DejaVu Sans" font-size="10.00">cache / DDR PMA RMW</text>
</g>
<!-- barrier -->
<g id="node2" class="node">
<title>barrier</title>
<path fill="#fff3cd" stroke="#4a4a4a" d="M366.44,-243.79C366.44,-243.79 281.56,-220.21 281.56,-220.21 275.78,-218.61 275.78,-215.39 281.56,-213.79 281.56,-213.79 366.44,-190.21 366.44,-190.21 372.22,-188.61 383.78,-188.61 389.56,-190.21 389.56,-190.21 474.44,-213.79 474.44,-213.79 480.22,-215.39 480.22,-218.61 474.44,-220.21 474.44,-220.21 389.56,-243.79 389.56,-243.79 383.78,-245.39 372.22,-245.39 366.44,-243.79"/>
<text text-anchor="middle" x="378" y="-220" font-family="DejaVu Sans" font-size="10.00">Completion barrier</text>
<text text-anchor="middle" x="378" y="-209" font-family="DejaVu Sans" font-size="10.00">serial baseline</text>
</g>
<!-- update&#45;&gt;barrier -->
<g id="edge2" class="edge">
<title>update&#45;&gt;barrier</title>
<path fill="none" stroke="#555555" d="M136.21,-184.95C182.74,-191.14 244.97,-199.42 294.51,-206.02"/>
<polygon fill="#555555" stroke="#555555" points="294.18,-209.51 304.56,-207.36 295.11,-202.57 294.18,-209.51"/>
</g>
<!-- pma -->
<g id="node3" class="node">
<title>pma</title>
<path fill="#e8e8e8" stroke="#4a4a4a" d="M439,-160.22C439,-163.06 411.66,-165.38 378,-165.38 344.34,-165.38 317,-163.06 317,-160.22 317,-160.22 317,-113.78 317,-113.78 317,-110.94 344.34,-108.62 378,-108.62 411.66,-108.62 439,-110.94 439,-113.78 439,-113.78 439,-160.22 439,-160.22"/>
<path fill="none" stroke="#4a4a4a" d="M439,-160.22C439,-157.37 411.66,-155.06 378,-155.06 344.34,-155.06 317,-157.37 317,-160.22"/>
<text text-anchor="middle" x="378" y="-145.5" font-family="DejaVu Sans" font-size="10.00">Payload&#45;backed PMA</text>
<text text-anchor="middle" x="378" y="-134.5" font-family="DejaVu Sans" font-size="10.00">4 HBM images</text>
<text text-anchor="middle" x="378" y="-123.5" font-family="DejaVu Sans" font-size="10.00">16 destinations / 64 B</text>
</g>
<!-- update&#45;&gt;pma -->
<g id="edge1" class="edge">
<title>update&#45;&gt;pma</title>
<path fill="none" stroke="#555555" d="M136.21,-167.49C186.74,-161.09 255.78,-152.35 306.98,-145.87"/>
<polygon fill="#555555" stroke="#555555" points="307.49,-149.33 316.97,-144.6 306.61,-142.39 307.49,-149.33"/>
<text text-anchor="middle" x="203" y="-166.8" font-family="DejaVu Sans" font-size="9.00">committed updates</text>
</g>
<!-- reader -->
<g id="node7" class="node">
<title>reader</title>
<path fill="#dcebd9" stroke="#4a4a4a" d="M752,-157.5C752,-157.5 630,-157.5 630,-157.5 624,-157.5 618,-151.5 618,-145.5 618,-145.5 618,-128.5 618,-128.5 618,-122.5 624,-116.5 630,-116.5 630,-116.5 752,-116.5 752,-116.5 758,-116.5 764,-122.5 764,-128.5 764,-128.5 764,-145.5 764,-145.5 764,-151.5 758,-157.5 752,-157.5"/>
<text text-anchor="middle" x="691" y="-145.5" font-family="DejaVu Sans" font-size="10.00">PMA&#45;native reader</text>
<text text-anchor="middle" x="691" y="-134.5" font-family="DejaVu Sans" font-size="10.00">row AXI + 4 PMA AXI ports</text>
<text text-anchor="middle" x="691" y="-123.5" font-family="DejaVu Sans" font-size="10.00">scan reserved empty slots</text>
</g>
<!-- barrier&#45;&gt;reader -->
<g id="edge3" class="edge">
<title>barrier&#45;&gt;reader</title>
<path fill="none" stroke="#555555" d="M434.6,-202.7C482.79,-190.3 553.19,-172.19 607.87,-158.13"/>
<polygon fill="#555555" stroke="#555555" points="609.08,-161.43 617.89,-155.55 607.33,-154.65 609.08,-161.43"/>
</g>
<!-- pma&#45;&gt;reader -->
<g id="edge4" class="edge">
<title>pma&#45;&gt;reader</title>
<path fill="none" stroke="#555555" d="M439.33,-137C487.29,-137 554.87,-137 607.78,-137"/>
<polygon fill="#555555" stroke="#555555" points="607.82,-140.5 617.82,-137 607.82,-133.5 607.82,-140.5"/>
<text text-anchor="middle" x="552" y="-139.8" font-family="DejaVu Sans" font-size="9.00">64 B AXI responses</text>
</g>
<!-- rows -->
<g id="node4" class="node">
<title>rows</title>
<path fill="#e8e8e8" stroke="#4a4a4a" d="M416,-82.98C416,-85.06 398.97,-86.75 378,-86.75 357.03,-86.75 340,-85.06 340,-82.98 340,-82.98 340,-49.02 340,-49.02 340,-46.94 357.03,-45.25 378,-45.25 398.97,-45.25 416,-46.94 416,-49.02 416,-49.02 416,-82.98 416,-82.98"/>
<path fill="none" stroke="#4a4a4a" d="M416,-82.98C416,-80.9 398.97,-79.21 378,-79.21 357.03,-79.21 340,-80.9 340,-82.98"/>
<text text-anchor="middle" x="378" y="-69" font-family="DejaVu Sans" font-size="10.00">Row bounds</text>
<text text-anchor="middle" x="378" y="-58" font-family="DejaVu Sans" font-size="10.00">8 B / source</text>
</g>
<!-- rows&#45;&gt;reader -->
<g id="edge5" class="edge">
<title>rows&#45;&gt;reader</title>
<path fill="none" stroke="#555555" d="M416.2,-74.49C463.34,-85.25 545.92,-104.11 608.1,-118.3"/>
<polygon fill="#555555" stroke="#555555" points="607.36,-121.72 617.89,-120.54 608.92,-114.9 607.36,-121.72"/>
<text text-anchor="middle" x="552" y="-117.8" font-family="DejaVu Sans" font-size="9.00">8 B AXI responses</text>
</g>
<!-- state -->
<g id="node5" class="node">
<title>state</title>
<path fill="#e8e8e8" stroke="#4a4a4a" d="M1573,-155.22C1573,-158.06 1545.88,-160.38 1512.5,-160.38 1479.12,-160.38 1452,-158.06 1452,-155.22 1452,-155.22 1452,-108.78 1452,-108.78 1452,-105.94 1479.12,-103.62 1512.5,-103.62 1545.88,-103.62 1573,-105.94 1573,-108.78 1573,-108.78 1573,-155.22 1573,-155.22"/>
<path fill="none" stroke="#4a4a4a" d="M1573,-155.22C1573,-152.37 1545.88,-150.06 1512.5,-150.06 1479.12,-150.06 1452,-152.37 1452,-155.22"/>
<text text-anchor="middle" x="1512.5" y="-140.5" font-family="DejaVu Sans" font-size="10.00">ReGraph vertex state</text>
<text text-anchor="middle" x="1512.5" y="-129.5" font-family="DejaVu Sans" font-size="10.00">active bit + distance</text>
<text text-anchor="middle" x="1512.5" y="-118.5" font-family="DejaVu Sans" font-size="10.00">HBM channel 30</text>
</g>
<!-- source_cache -->
<g id="node6" class="node">
<title>source_cache</title>
<path fill="#dcebd9" stroke="#4a4a4a" d="M2103,-159C2103,-159 2016,-159 2016,-159 2010,-159 2004,-153 2004,-147 2004,-147 2004,-135 2004,-135 2004,-129 2010,-123 2016,-123 2016,-123 2103,-123 2103,-123 2109,-123 2115,-129 2115,-135 2115,-135 2115,-147 2115,-147 2115,-153 2109,-159 2103,-159"/>
<text text-anchor="middle" x="2059.5" y="-144" font-family="DejaVu Sans" font-size="10.00">Source cache refill</text>
<text text-anchor="middle" x="2059.5" y="-133" font-family="DejaVu Sans" font-size="10.00">4096 words / chunk</text>
</g>
<!-- state&#45;&gt;source_cache -->
<g id="edge6" class="edge">
<title>state&#45;&gt;source_cache</title>
<path fill="none" stroke="#555555" d="M1573.12,-132.98C1676.17,-134.69 1886.75,-138.16 1993.45,-139.93"/>
<polygon fill="#555555" stroke="#555555" points="1993.7,-143.43 2003.75,-140.1 1993.81,-136.43 1993.7,-143.43"/>
<text text-anchor="middle" x="1775.5" y="-139.8" font-family="DejaVu Sans" font-size="9.00">sequential AXI bursts</text>
</g>
<!-- apply -->
<g id="node12" class="node">
<title>apply</title>
<path fill="#d9e8f5" stroke="#4a4a4a" d="M1831,-96.5C1831,-96.5 1720,-96.5 1720,-96.5 1714,-96.5 1708,-90.5 1708,-84.5 1708,-84.5 1708,-67.5 1708,-67.5 1708,-61.5 1714,-55.5 1720,-55.5 1720,-55.5 1831,-55.5 1831,-55.5 1837,-55.5 1843,-61.5 1843,-67.5 1843,-67.5 1843,-84.5 1843,-84.5 1843,-90.5 1837,-96.5 1831,-96.5"/>
<text text-anchor="middle" x="1775.5" y="-84.5" font-family="DejaVu Sans" font-size="10.00">Partition&#45;wide apply</text>
<text text-anchor="middle" x="1775.5" y="-73.5" font-family="DejaVu Sans" font-size="10.00">64 B read + write bursts</text>
<text text-anchor="middle" x="1775.5" y="-62.5" font-family="DejaVu Sans" font-size="10.00">set next active bits</text>
</g>
<!-- state&#45;&gt;apply -->
<g id="edge13" class="edge">
<title>state&#45;&gt;apply</title>
<path fill="none" stroke="#555555" d="M1583.14,-116.58C1587.15,-115.7 1591.13,-114.84 1595,-114 1628.71,-106.71 1666.02,-98.79 1697.85,-92.07"/>
<polygon fill="#555555" stroke="#555555" points="1582.15,-113.21 1573.13,-118.77 1583.65,-120.05 1582.15,-113.21"/>
<polygon fill="#555555" stroke="#555555" points="1698.92,-95.42 1707.98,-89.94 1697.47,-88.58 1698.92,-95.42"/>
<text text-anchor="middle" x="1640.5" y="-116.8" font-family="DejaVu Sans" font-size="9.00">64 B AXI R/W</text>
</g>
<!-- source_cache&#45;&gt;reader -->
<g id="edge7" class="edge">
<title>source_cache&#45;&gt;reader</title>
<path fill="none" stroke="#555555" d="M2003.95,-157.48C1947.56,-173.04 1856.7,-194 1776.5,-194 993,-194 993,-194 993,-194 916.42,-194 830.77,-175.97 770.47,-160.19"/>
<polygon fill="#555555" stroke="#555555" points="771.2,-156.76 760.64,-157.58 769.41,-163.53 771.2,-156.76"/>
<text text-anchor="middle" x="1375.5" y="-196.8" font-family="DejaVu Sans" font-size="9.00">active + source payload</text>
</g>
<!-- axis -->
<g id="node8" class="node">
<title>axis</title>
<path fill="#f4e1c1" stroke="#4a4a4a" d="M1042,-99.5C1042,-99.5 946,-99.5 946,-99.5 940,-99.5 934,-93.5 934,-87.5 934,-87.5 934,-70.5 934,-70.5 934,-64.5 940,-58.5 946,-58.5 946,-58.5 1042,-58.5 1042,-58.5 1048,-58.5 1054,-64.5 1054,-70.5 1054,-70.5 1054,-87.5 1054,-87.5 1054,-93.5 1048,-99.5 1042,-99.5"/>
<text text-anchor="middle" x="994" y="-87.5" font-family="DejaVu Sans" font-size="10.00">Registered AXIS FIFO</text>
<text text-anchor="middle" x="994" y="-76.5" font-family="DejaVu Sans" font-size="10.00">4 or 8 slots / batch</text>
<text text-anchor="middle" x="994" y="-65.5" font-family="DejaVu Sans" font-size="10.00">finite depth</text>
</g>
<!-- reader&#45;&gt;axis -->
<g id="edge8" class="edge">
<title>reader&#45;&gt;axis</title>
<path fill="none" stroke="#555555" d="M764.1,-123.11C812.48,-113.78 875.87,-101.57 923.67,-92.36"/>
<polygon fill="#555555" stroke="#555555" points="924.47,-95.77 933.62,-90.44 923.14,-88.9 924.47,-95.77"/>
<text text-anchor="middle" x="838.5" y="-121.8" font-family="DejaVu Sans" font-size="9.00">two batches / segment</text>
</g>
<!-- gather -->
<g id="node10" class="node">
<title>gather</title>
<path fill="#f0d9e7" stroke="#4a4a4a" d="M1287,-96.5C1287,-96.5 1192,-96.5 1192,-96.5 1186,-96.5 1180,-90.5 1180,-84.5 1180,-84.5 1180,-67.5 1180,-67.5 1180,-61.5 1186,-55.5 1192,-55.5 1192,-55.5 1287,-55.5 1287,-55.5 1293,-55.5 1299,-61.5 1299,-67.5 1299,-67.5 1299,-84.5 1299,-84.5 1299,-90.5 1293,-96.5 1287,-96.5"/>
<text text-anchor="middle" x="1239.5" y="-84.5" font-family="DejaVu Sans" font-size="10.00">8&#45;bank Map / Reduce</text>
<text text-anchor="middle" x="1239.5" y="-73.5" font-family="DejaVu Sans" font-size="10.00">unit&#45;weight SSSP</text>
<text text-anchor="middle" x="1239.5" y="-62.5" font-family="DejaVu Sans" font-size="10.00">bank&#45;conflict timing</text>
</g>
<!-- axis&#45;&gt;gather -->
<g id="edge10" class="edge">
<title>axis&#45;&gt;gather</title>
<path fill="none" stroke="#555555" d="M1054.26,-78.27C1089.13,-77.84 1133.38,-77.3 1169.78,-76.85"/>
<polygon fill="#555555" stroke="#555555" points="1169.87,-80.35 1179.82,-76.72 1169.78,-73.35 1169.87,-80.35"/>
<text text-anchor="middle" x="1127.5" y="-80.8" font-family="DejaVu Sans" font-size="9.00">backpressure</text>
</g>
<!-- reset -->
<g id="node9" class="node">
<title>reset</title>
<path fill="#f0d9e7" stroke="#4a4a4a" d="M1038,-36C1038,-36 950,-36 950,-36 944,-36 938,-30 938,-24 938,-24 938,-12 938,-12 938,-6 944,0 950,0 950,0 1038,0 1038,0 1044,0 1050,-6 1050,-12 1050,-12 1050,-24 1050,-24 1050,-30 1044,-36 1038,-36"/>
<text text-anchor="middle" x="994" y="-21" font-family="DejaVu Sans" font-size="10.00">Gather reset sweep</text>
<text text-anchor="middle" x="994" y="-10" font-family="DejaVu Sans" font-size="10.00">65536 / 2 cycles</text>
</g>
<!-- reset&#45;&gt;gather -->
<g id="edge9" class="edge">
<title>reset&#45;&gt;gather</title>
<path fill="none" stroke="#555555" d="M1050.25,-31.16C1085.68,-39.6 1131.93,-50.62 1169.72,-59.62"/>
<polygon fill="#555555" stroke="#555555" points="1169.1,-63.07 1179.64,-61.98 1170.72,-56.26 1169.1,-63.07"/>
<text text-anchor="middle" x="1127.5" y="-58.8" font-family="DejaVu Sans" font-size="9.00">round start</text>
</g>
<!-- merge -->
<g id="node11" class="node">
<title>merge</title>
<path fill="#f0d9e7" stroke="#4a4a4a" d="M1560,-82C1560,-82 1465,-82 1465,-82 1459,-82 1453,-76 1453,-70 1453,-70 1453,-58 1453,-58 1453,-52 1459,-46 1465,-46 1465,-46 1560,-46 1560,-46 1566,-46 1572,-52 1572,-58 1572,-58 1572,-70 1572,-70 1572,-76 1566,-82 1560,-82"/>
<text text-anchor="middle" x="1512.5" y="-67" font-family="DejaVu Sans" font-size="10.00">Gather merge sweep</text>
<text text-anchor="middle" x="1512.5" y="-56" font-family="DejaVu Sans" font-size="10.00">65536 / 2 cycles</text>
</g>
<!-- gather&#45;&gt;merge -->
<g id="edge11" class="edge">
<title>gather&#45;&gt;merge</title>
<path fill="none" stroke="#555555" d="M1299.3,-73.4C1341.47,-71.53 1398.42,-69.01 1442.71,-67.05"/>
<polygon fill="#555555" stroke="#555555" points="1442.98,-70.54 1452.81,-66.6 1442.67,-63.54 1442.98,-70.54"/>
</g>
<!-- merge&#45;&gt;apply -->
<g id="edge12" class="edge">
<title>merge&#45;&gt;apply</title>
<path fill="none" stroke="#555555" d="M1572.07,-66.69C1609.21,-68.4 1657.64,-70.63 1697.82,-72.47"/>
<polygon fill="#555555" stroke="#555555" points="1697.69,-75.97 1707.84,-72.94 1698.01,-68.98 1697.69,-75.97"/>
<text text-anchor="middle" x="1640.5" y="-74.8" font-family="DejaVu Sans" font-size="9.00">reduced candidates</text>
</g>
<!-- apply&#45;&gt;source_cache -->
<g id="edge14" class="edge">
<title>apply&#45;&gt;source_cache</title>
<path fill="none" stroke="#3f7f5f" d="M1843.37,-90.89C1874.31,-97.83 1911.55,-106.25 1945,-114 1960.93,-117.69 1978.1,-121.74 1994.15,-125.55"/>
<polygon fill="#3f7f5f" stroke="#3f7f5f" points="1993.44,-128.98 2003.97,-127.89 1995.06,-122.17 1993.44,-128.98"/>
<text text-anchor="middle" x="1905" y="-116.8" font-family="DejaVu Sans" font-size="9.00">next superstep</text>
</g>
<!-- oracle -->
<g id="node13" class="node">
<title>oracle</title>
<path fill="#dcebd9" stroke="#4a4a4a" d="M2140,-94C2140,-94 1979,-94 1979,-94 1973,-94 1967,-88 1967,-82 1967,-82 1967,-70 1967,-70 1967,-64 1973,-58 1979,-58 1979,-58 2140,-58 2140,-58 2146,-58 2152,-64 2152,-70 2152,-70 2152,-82 2152,-82 2152,-88 2146,-94 2140,-94"/>
<text text-anchor="middle" x="2059.5" y="-79" font-family="DejaVu Sans" font-size="10.00">Committed&#45;state</text>
<text text-anchor="middle" x="2059.5" y="-68" font-family="DejaVu Sans" font-size="10.00">distance oracle + byte/stall ledger</text>
</g>
<!-- apply&#45;&gt;oracle -->
<g id="edge15" class="edge">
<title>apply&#45;&gt;oracle</title>
<path fill="none" stroke="#555555" d="M1843.33,-76C1877.19,-76 1919.04,-76 1956.8,-76"/>
<polygon fill="#555555" stroke="#555555" points="1956.81,-79.5 1966.81,-76 1956.81,-72.5 1956.81,-79.5"/>
<text text-anchor="middle" x="1905" y="-78.8" font-family="DejaVu Sans" font-size="9.00">no active vertices</text>
</g>
<!-- bypass -->
<g id="node14" class="node">
<title>bypass</title>
<path fill="#fff3cd" stroke="#9a7800" stroke-dasharray="5,2" d="M1063,-158C1063,-158 925,-158 925,-158 919,-158 913,-152 913,-146 913,-146 913,-134 913,-134 913,-128 919,-122 925,-122 925,-122 1063,-122 1063,-122 1069,-122 1075,-128 1075,-134 1075,-134 1075,-146 1075,-146 1075,-152 1069,-158 1063,-158"/>
<text text-anchor="middle" x="994" y="-143" font-family="DejaVu Sans" font-size="10.00">6&#45;stage RAW bypass registers</text>
<text text-anchor="middle" x="994" y="-132" font-family="DejaVu Sans" font-size="10.00">remaining explicit timing gap</text>
</g>
<!-- bypass&#45;&gt;gather -->
<g id="edge16" class="edge">
<title>bypass&#45;&gt;gather</title>
<path fill="none" stroke="#555555" stroke-dasharray="5,2" d="M1063.8,-121.92C1096.94,-113.21 1136.58,-102.79 1169.71,-94.08"/>
<polygon fill="#555555" stroke="#555555" points="1170.99,-97.36 1179.77,-91.44 1169.21,-90.59 1170.99,-97.36"/>
</g>
</g>
</svg>
