<?xml version="1.0" encoding="UTF-8" standalone="no"?>
<!DOCTYPE svg PUBLIC "-//W3C//DTD SVG 1.1//EN"
 "http://www.w3.org/Graphics/SVG/1.1/DTD/svg11.dtd">
<!-- Generated by graphviz version 2.42.4 (0)
 -->
<!-- Title: G Pages: 1 -->
<svg width="2178pt" height="152pt"
 viewBox="0.00 0.00 2178.00 151.89" xmlns="http://www.w3.org/2000/svg" xmlns:xlink="http://www.w3.org/1999/xlink">
<g id="graph0" class="graph" transform="scale(1 1) rotate(0) translate(18 133.89)">
<title>G</title>
<polygon fill="white" stroke="transparent" points="-18,18 -18,-133.89 2160,-133.89 2160,18 -18,18"/>
<!-- updates -->
<g id="node1" class="node">
<title>updates</title>
<path fill="#dfeaf4" stroke="#333333" d="M72,-76.89C72,-76.89 12,-76.89 12,-76.89 6,-76.89 0,-70.89 0,-64.89 0,-64.89 0,-52.89 0,-52.89 0,-46.89 6,-40.89 12,-40.89 12,-40.89 72,-40.89 72,-40.89 78,-40.89 84,-46.89 84,-52.89 84,-52.89 84,-64.89 84,-64.89 84,-70.89 78,-76.89 72,-76.89"/>
<text text-anchor="middle" x="42" y="-61.89" font-family="DejaVu Sans" font-size="10.00">Update HBM</text>
<text text-anchor="middle" x="42" y="-50.89" font-family="DejaVu Sans" font-size="10.00">4 input arrays</text>
</g>
<!-- search -->
<g id="node2" class="node">
<title>search</title>
<path fill="#dfeaf4" stroke="#333333" d="M329,-79.39C329,-79.39 207,-79.39 207,-79.39 201,-79.39 195,-73.39 195,-67.39 195,-67.39 195,-50.39 195,-50.39 195,-44.39 201,-38.39 207,-38.39 207,-38.39 329,-38.39 329,-38.39 335,-38.39 341,-44.39 341,-50.39 341,-50.39 341,-67.39 341,-67.39 341,-73.39 335,-79.39 329,-79.39"/>
<text text-anchor="middle" x="268" y="-67.39" font-family="DejaVu Sans" font-size="10.00">4 x bin_search CU</text>
<text text-anchor="middle" x="268" y="-56.39" font-family="DejaVu Sans" font-size="10.00">native: serial direct search</text>
<text text-anchor="middle" x="268" y="-45.39" font-family="DejaVu Sans" font-size="10.00">projected: 64 workers / CU</text>
</g>
<!-- updates&#45;&gt;search -->
<g id="edge1" class="edge">
<title>updates&#45;&gt;search</title>
<path fill="none" stroke="#555555" d="M84.09,-58.89C112.25,-58.89 150.58,-58.89 184.87,-58.89"/>
<polygon fill="#555555" stroke="#555555" points="184.9,-62.39 194.9,-58.89 184.9,-55.39 184.9,-62.39"/>
<text text-anchor="middle" x="139.5" y="-61.69" font-family="DejaVu Sans" font-size="9.00">64&#45;bit updates</text>
</g>
<!-- dispatch -->
<g id="node3" class="node">
<title>dispatch</title>
<path fill="#f7f7f4" stroke="#333333" d="M561,-76.89C561,-76.89 454,-76.89 454,-76.89 448,-76.89 442,-70.89 442,-64.89 442,-64.89 442,-52.89 442,-52.89 442,-46.89 448,-40.89 454,-40.89 454,-40.89 561,-40.89 561,-40.89 567,-40.89 573,-46.89 573,-52.89 573,-52.89 573,-64.89 573,-64.89 573,-70.89 567,-76.89 561,-76.89"/>
<text text-anchor="middle" x="507.5" y="-61.89" font-family="DejaVu Sans" font-size="10.00">1 x dispatch CU</text>
<text text-anchor="middle" x="507.5" y="-50.89" font-family="DejaVu Sans" font-size="10.00">fixed 4&#45;way round robin</text>
</g>
<!-- search&#45;&gt;dispatch -->
<g id="edge2" class="edge">
<title>search&#45;&gt;dispatch</title>
<path fill="none" stroke="#555555" d="M341.23,-58.89C369.91,-58.89 402.91,-58.89 431.83,-58.89"/>
<polygon fill="#555555" stroke="#555555" points="431.88,-62.39 441.88,-58.89 431.88,-55.39 431.88,-62.39"/>
<text text-anchor="middle" x="391.5" y="-61.69" font-family="DejaVu Sans" font-size="9.00">4 finite AXIS</text>
</g>
<!-- cache -->
<g id="node4" class="node">
<title>cache</title>
<path fill="#f7f7f4" stroke="#333333" d="M828,-112.39C828,-112.39 686,-112.39 686,-112.39 680,-112.39 674,-106.39 674,-100.39 674,-100.39 674,-83.39 674,-83.39 674,-77.39 680,-71.39 686,-71.39 686,-71.39 828,-71.39 828,-71.39 834,-71.39 840,-77.39 840,-83.39 840,-83.39 840,-100.39 840,-100.39 840,-106.39 834,-112.39 828,-112.39"/>
<text text-anchor="middle" x="757" y="-100.39" font-family="DejaVu Sans" font-size="10.00">2 x process_cache CU</text>
<text text-anchor="middle" x="757" y="-89.39" font-family="DejaVu Sans" font-size="10.00">native: serial direct HBM RMW</text>
<text text-anchor="middle" x="757" y="-78.39" font-family="DejaVu Sans" font-size="10.00">projected: 16 URAM lanes</text>
</g>
<!-- dispatch&#45;&gt;cache -->
<g id="edge3" class="edge">
<title>dispatch&#45;&gt;cache</title>
<path fill="none" stroke="#555555" d="M573.2,-67.52C600.87,-71.21 633.68,-75.59 663.81,-79.6"/>
<polygon fill="#555555" stroke="#555555" points="663.54,-83.1 673.92,-80.95 664.47,-76.16 663.54,-83.1"/>
<text text-anchor="middle" x="623.5" y="-79.69" font-family="DejaVu Sans" font-size="9.00">2 finite AXIS</text>
</g>
<!-- ddr -->
<g id="node5" class="node">
<title>ddr</title>
<path fill="#f7f7f4" stroke="#333333" d="M800,-46.39C800,-46.39 714,-46.39 714,-46.39 708,-46.39 702,-40.39 702,-34.39 702,-34.39 702,-17.39 702,-17.39 702,-11.39 708,-5.39 714,-5.39 714,-5.39 800,-5.39 800,-5.39 806,-5.39 812,-11.39 812,-17.39 812,-17.39 812,-34.39 812,-34.39 812,-40.39 806,-46.39 800,-46.39"/>
<text text-anchor="middle" x="757" y="-34.39" font-family="DejaVu Sans" font-size="10.00">2 x process_ddr CU</text>
<text text-anchor="middle" x="757" y="-23.39" font-family="DejaVu Sans" font-size="10.00">16 lanes / CU</text>
<text text-anchor="middle" x="757" y="-12.39" font-family="DejaVu Sans" font-size="10.00">DDR region</text>
</g>
<!-- dispatch&#45;&gt;ddr -->
<g id="edge4" class="edge">
<title>dispatch&#45;&gt;ddr</title>
<path fill="none" stroke="#555555" d="M573.2,-50.27C609.73,-45.4 655.22,-39.33 691.68,-34.47"/>
<polygon fill="#555555" stroke="#555555" points="692.26,-37.92 701.71,-33.13 691.34,-30.99 692.26,-37.92"/>
<text text-anchor="middle" x="623.5" y="-50.69" font-family="DejaVu Sans" font-size="9.00">2 finite AXIS</text>
</g>
<!-- pma -->
<g id="node6" class="node">
<title>pma</title>
<path fill="#f4e4bf" stroke="#333333" d="M1078,-115.89C1078,-115.89 955,-115.89 955,-115.89 949,-115.89 943,-109.89 943,-103.89 943,-103.89 943,-91.89 943,-91.89 943,-85.89 949,-79.89 955,-79.89 955,-79.89 1078,-79.89 1078,-79.89 1084,-79.89 1090,-85.89 1090,-91.89 1090,-91.89 1090,-103.89 1090,-103.89 1090,-109.89 1084,-115.89 1078,-115.89"/>
<text text-anchor="middle" x="1016.5" y="-100.89" font-family="DejaVu Sans" font-size="10.00">PMA HBM[0..3]</text>
<text text-anchor="middle" x="1016.5" y="-89.89" font-family="DejaVu Sans" font-size="10.00">16 x 32&#45;bit slots / segment</text>
</g>
<!-- cache&#45;&gt;pma -->
<g id="edge5" class="edge">
<title>cache&#45;&gt;pma</title>
<path fill="none" stroke="#555555" d="M850.36,-94.05C877.19,-94.67 906.3,-95.35 932.51,-95.96"/>
<polygon fill="#555555" stroke="#555555" points="850.26,-90.54 840.18,-93.81 850.1,-97.54 850.26,-90.54"/>
<polygon fill="#555555" stroke="#555555" points="932.71,-99.47 942.79,-96.2 932.87,-92.47 932.71,-99.47"/>
<text text-anchor="middle" x="891.5" y="-97.69" font-family="DejaVu Sans" font-size="9.00">512&#45;bit RMW</text>
</g>
<!-- barrier -->
<g id="node7" class="node">
<title>barrier</title>
<path fill="#f7f7f4" stroke="#333333" d="M1058.5,-45.89C1058.5,-45.89 974.5,-45.89 974.5,-45.89 968.5,-45.89 962.5,-39.89 962.5,-33.89 962.5,-33.89 962.5,-21.89 962.5,-21.89 962.5,-15.89 968.5,-9.89 974.5,-9.89 974.5,-9.89 1058.5,-9.89 1058.5,-9.89 1064.5,-9.89 1070.5,-15.89 1070.5,-21.89 1070.5,-21.89 1070.5,-33.89 1070.5,-33.89 1070.5,-39.89 1064.5,-45.89 1058.5,-45.89"/>
<text text-anchor="middle" x="1016.5" y="-25.39" font-family="DejaVu Sans" font-size="10.00">Completion barrier</text>
</g>
<!-- cache&#45;&gt;barrier -->
<g id="edge7" class="edge">
<title>cache&#45;&gt;barrier</title>
<path fill="none" stroke="#555555" stroke-dasharray="5,2" d="M840.36,-74.89C866.26,-69.23 894.9,-62.63 921,-55.89 931.17,-53.27 941.9,-50.29 952.33,-47.28"/>
<polygon fill="#555555" stroke="#555555" points="953.59,-50.56 962.21,-44.4 951.63,-43.84 953.59,-50.56"/>
</g>
<!-- ddr&#45;&gt;pma -->
<g id="edge6" class="edge">
<title>ddr&#45;&gt;pma</title>
<path fill="none" stroke="#555555" d="M822.03,-43.8C858.08,-53.88 903.27,-66.51 940.91,-77.04"/>
<polygon fill="#555555" stroke="#555555" points="822.87,-40.4 812.29,-41.08 820.98,-47.14 822.87,-40.4"/>
<polygon fill="#555555" stroke="#555555" points="940.23,-80.48 950.8,-79.8 942.12,-73.74 940.23,-80.48"/>
<text text-anchor="middle" x="891.5" y="-72.69" font-family="DejaVu Sans" font-size="9.00">512&#45;bit RMW</text>
</g>
<!-- ddr&#45;&gt;barrier -->
<g id="edge8" class="edge">
<title>ddr&#45;&gt;barrier</title>
<path fill="none" stroke="#555555" stroke-dasharray="5,2" d="M812.34,-21.1C844.04,-18.92 884.79,-17.17 921,-18.89 931,-19.37 941.58,-20.13 951.89,-21"/>
<polygon fill="#555555" stroke="#555555" points="951.82,-24.51 962.09,-21.92 952.44,-17.54 951.82,-24.51"/>
</g>
<!-- compact -->
<g id="node8" class="node">
<title>compact</title>
<path fill="#f3d4d4" stroke="#333333" d="M1386.5,-110.39C1386.5,-110.39 1270.5,-110.39 1270.5,-110.39 1264.5,-110.39 1258.5,-104.39 1258.5,-98.39 1258.5,-98.39 1258.5,-81.39 1258.5,-81.39 1258.5,-75.39 1264.5,-69.39 1270.5,-69.39 1270.5,-69.39 1386.5,-69.39 1386.5,-69.39 1392.5,-69.39 1398.5,-75.39 1398.5,-81.39 1398.5,-81.39 1398.5,-98.39 1398.5,-98.39 1398.5,-104.39 1392.5,-110.39 1386.5,-110.39"/>
<text text-anchor="middle" x="1328.5" y="-98.39" font-family="DejaVu Sans" font-size="10.00">Native only</text>
<text text-anchor="middle" x="1328.5" y="-87.39" font-family="DejaVu Sans" font-size="10.00">capacity&#45;wide compactor</text>
<text text-anchor="middle" x="1328.5" y="-76.39" font-family="DejaVu Sans" font-size="10.00">(measured)</text>
</g>
<!-- pma&#45;&gt;compact -->
<g id="edge10" class="edge">
<title>pma&#45;&gt;compact</title>
<path fill="none" stroke="#555555" d="M1090.3,-97.28C1127.34,-96.84 1173.08,-96.11 1214,-94.89 1225.13,-94.56 1236.87,-94.14 1248.42,-93.67"/>
<polygon fill="#555555" stroke="#555555" points="1248.64,-97.16 1258.49,-93.25 1248.35,-90.17 1248.64,-97.16"/>
</g>
<!-- pmareader -->
<g id="node11" class="node">
<title>pmareader</title>
<path fill="#dcebd9" stroke="#333333" d="M1409,-43.89C1409,-43.89 1248,-43.89 1248,-43.89 1242,-43.89 1236,-37.89 1236,-31.89 1236,-31.89 1236,-19.89 1236,-19.89 1236,-13.89 1242,-7.89 1248,-7.89 1248,-7.89 1409,-7.89 1409,-7.89 1415,-7.89 1421,-13.89 1421,-19.89 1421,-19.89 1421,-31.89 1421,-31.89 1421,-37.89 1415,-43.89 1409,-43.89"/>
<text text-anchor="middle" x="1328.5" y="-28.89" font-family="DejaVu Sans" font-size="10.00">Normalized / projected</text>
<text text-anchor="middle" x="1328.5" y="-17.89" font-family="DejaVu Sans" font-size="10.00">PMA&#45;native row + segment reader</text>
</g>
<!-- pma&#45;&gt;pmareader -->
<g id="edge15" class="edge">
<title>pma&#45;&gt;pmareader</title>
<path fill="none" stroke="#555555" d="M1090.42,-82.57C1127.5,-74.61 1173.22,-64.56 1214,-54.89 1225.29,-52.22 1237.18,-49.3 1248.84,-46.37"/>
<polygon fill="#555555" stroke="#555555" points="1249.73,-49.75 1258.57,-43.91 1248.02,-42.97 1249.73,-49.75"/>
<text text-anchor="middle" x="1163" y="-79.69" font-family="DejaVu Sans" font-size="9.00">no graph copy</text>
</g>
<!-- barrier&#45;&gt;compact -->
<g id="edge9" class="edge">
<title>barrier&#45;&gt;compact</title>
<path fill="none" stroke="#555555" d="M1070.73,-26.3C1110.89,-26.51 1166.94,-29.84 1214,-43.89 1224.67,-47.08 1225.86,-51.28 1236,-55.89 1243.35,-59.24 1251.13,-62.52 1258.92,-65.64"/>
<polygon fill="#555555" stroke="#555555" points="1257.83,-68.97 1268.42,-69.36 1260.38,-62.45 1257.83,-68.97"/>
<text text-anchor="middle" x="1163" y="-46.69" font-family="DejaVu Sans" font-size="9.00">native</text>
</g>
<!-- barrier&#45;&gt;pmareader -->
<g id="edge14" class="edge">
<title>barrier&#45;&gt;pmareader</title>
<path fill="none" stroke="#555555" d="M1070.53,-11.97C1083.94,-8.62 1098.39,-5.6 1112,-3.89 1156.98,1.73 1168.87,0.44 1214,-3.89 1220.58,-4.53 1227.34,-5.36 1234.13,-6.33"/>
<polygon fill="#555555" stroke="#555555" points="1233.67,-9.8 1244.09,-7.85 1234.73,-2.88 1233.67,-9.8"/>
<text text-anchor="middle" x="1163" y="-6.69" font-family="DejaVu Sans" font-size="9.00">normalized / projected</text>
</g>
<!-- edgearray -->
<g id="node9" class="node">
<title>edgearray</title>
<path fill="#f3d4d4" stroke="#333333" d="M1639,-106.89C1639,-106.89 1547,-106.89 1547,-106.89 1541,-106.89 1535,-100.89 1535,-94.89 1535,-94.89 1535,-82.89 1535,-82.89 1535,-76.89 1541,-70.89 1547,-70.89 1547,-70.89 1639,-70.89 1639,-70.89 1645,-70.89 1651,-76.89 1651,-82.89 1651,-82.89 1651,-94.89 1651,-94.89 1651,-100.89 1645,-106.89 1639,-106.89"/>
<text text-anchor="middle" x="1593" y="-91.89" font-family="DejaVu Sans" font-size="10.00">Compact edge array</text>
<text text-anchor="middle" x="1593" y="-80.89" font-family="DejaVu Sans" font-size="10.00">HBM[0]</text>
</g>
<!-- compact&#45;&gt;edgearray -->
<g id="edge11" class="edge">
<title>compact&#45;&gt;edgearray</title>
<path fill="none" stroke="#555555" d="M1398.81,-89.63C1437.71,-89.48 1486.04,-89.3 1524.62,-89.15"/>
<polygon fill="#555555" stroke="#555555" points="1524.73,-92.65 1534.72,-89.11 1524.7,-85.65 1524.73,-92.65"/>
</g>
<!-- nativegs -->
<g id="node10" class="node">
<title>nativegs</title>
<path fill="#f3d4d4" stroke="#333333" d="M1933,-106.89C1933,-106.89 1859,-106.89 1859,-106.89 1853,-106.89 1847,-100.89 1847,-94.89 1847,-94.89 1847,-82.89 1847,-82.89 1847,-76.89 1853,-70.89 1859,-70.89 1859,-70.89 1933,-70.89 1933,-70.89 1939,-70.89 1945,-76.89 1945,-82.89 1945,-82.89 1945,-94.89 1945,-94.89 1945,-100.89 1939,-106.89 1933,-106.89"/>
<text text-anchor="middle" x="1896" y="-91.89" font-family="DejaVu Sans" font-size="10.00">Native ReGraph</text>
<text text-anchor="middle" x="1896" y="-80.89" font-family="DejaVu Sans" font-size="10.00">little&#45;GS + Apply</text>
</g>
<!-- edgearray&#45;&gt;nativegs -->
<g id="edge12" class="edge">
<title>edgearray&#45;&gt;nativegs</title>
<path fill="none" stroke="#555555" d="M1651.32,-88.89C1704.53,-88.89 1783.34,-88.89 1836.81,-88.89"/>
<polygon fill="#555555" stroke="#555555" points="1836.82,-92.39 1846.82,-88.89 1836.82,-85.39 1836.82,-92.39"/>
</g>
<!-- state -->
<g id="node13" class="node">
<title>state</title>
<path fill="#f4e4bf" stroke="#333333" d="M2130,-65.89C2130,-65.89 2002,-65.89 2002,-65.89 1996,-65.89 1990,-59.89 1990,-53.89 1990,-53.89 1990,-41.89 1990,-41.89 1990,-35.89 1996,-29.89 2002,-29.89 2002,-29.89 2130,-29.89 2130,-29.89 2136,-29.89 2142,-35.89 2142,-41.89 2142,-41.89 2142,-53.89 2142,-53.89 2142,-59.89 2136,-65.89 2130,-65.89"/>
<text text-anchor="middle" x="2066" y="-45.39" font-family="DejaVu Sans" font-size="10.00">Vertex state + frontier HBM</text>
</g>
<!-- nativegs&#45;&gt;state -->
<g id="edge13" class="edge">
<title>nativegs&#45;&gt;state</title>
<path fill="none" stroke="#555555" d="M1955.13,-74.71C1963.57,-72.65 1972.4,-70.49 1981.22,-68.34"/>
<polygon fill="#555555" stroke="#555555" points="1954.03,-71.37 1945.14,-77.15 1955.69,-78.18 1954.03,-71.37"/>
<polygon fill="#555555" stroke="#555555" points="1982.27,-71.69 1991.16,-65.92 1980.61,-64.89 1982.27,-71.69"/>
</g>
<!-- mapreduce -->
<g id="node12" class="node">
<title>mapreduce</title>
<path fill="#dcebd9" stroke="#333333" d="M1813,-49.89C1813,-49.89 1685,-49.89 1685,-49.89 1679,-49.89 1673,-43.89 1673,-37.89 1673,-37.89 1673,-25.89 1673,-25.89 1673,-19.89 1679,-13.89 1685,-13.89 1685,-13.89 1813,-13.89 1813,-13.89 1819,-13.89 1825,-19.89 1825,-25.89 1825,-25.89 1825,-37.89 1825,-37.89 1825,-43.89 1819,-49.89 1813,-49.89"/>
<text text-anchor="middle" x="1749" y="-34.89" font-family="DejaVu Sans" font-size="10.00">Shared Map / Reduce policy</text>
<text text-anchor="middle" x="1749" y="-23.89" font-family="DejaVu Sans" font-size="10.00">SSSP | full PR | residual PR</text>
</g>
<!-- pmareader&#45;&gt;mapreduce -->
<g id="edge16" class="edge">
<title>pmareader&#45;&gt;mapreduce</title>
<path fill="none" stroke="#555555" d="M1421.08,-27.21C1492.96,-28.24 1592.29,-29.66 1662.55,-30.67"/>
<polygon fill="#555555" stroke="#555555" points="1662.64,-34.17 1672.69,-30.82 1662.74,-27.17 1662.64,-34.17"/>
<text text-anchor="middle" x="1478" y="-31.69" font-family="DejaVu Sans" font-size="9.00">valid PMA lanes</text>
</g>
<!-- mapreduce&#45;&gt;state -->
<g id="edge17" class="edge">
<title>mapreduce&#45;&gt;state</title>
<path fill="none" stroke="#555555" d="M1835.18,-36.22C1880.11,-38.5 1935.07,-41.29 1979.97,-43.58"/>
<polygon fill="#555555" stroke="#555555" points="1835.21,-32.72 1825.05,-35.71 1834.86,-39.71 1835.21,-32.72"/>
<polygon fill="#555555" stroke="#555555" points="1979.81,-47.07 1989.98,-44.08 1980.17,-40.08 1979.81,-47.07"/>
</g>
</g>
</svg>
