<?xml version="1.0" encoding="UTF-8" standalone="no"?>
<!DOCTYPE svg PUBLIC "-//W3C//DTD SVG 1.1//EN"
 "http://www.w3.org/Graphics/SVG/1.1/DTD/svg11.dtd">
<!-- Generated by graphviz version 2.42.4 (0)
 -->
<!-- Title: EnergyEvidence Pages: 1 -->
<svg width="1190pt" height="175pt"
 viewBox="0.00 0.00 1189.92 174.92" xmlns="http://www.w3.org/2000/svg" xmlns:xlink="http://www.w3.org/1999/xlink">
<g id="graph0" class="graph" transform="scale(1 1) rotate(0) translate(12.96 161.96)">
<title>EnergyEvidence</title>
<polygon fill="white" stroke="transparent" points="-12.96,12.96 -12.96,-161.96 1176.96,-161.96 1176.96,12.96 -12.96,12.96"/>
<g id="clust1" class="cluster">
<title>cluster_execution</title>
<polygon fill="white" stroke="#9aa6ad" points="0,-8 0,-141 211,-141 211,-8 0,-8"/>
<text text-anchor="middle" x="105.5" y="-125.8" font-family="Times,serif" font-size="14.00">Execution&#45;driven simulator</text>
</g>
<g id="clust2" class="cluster">
<title>cluster_memory</title>
<polygon fill="white" stroke="#9aa6ad" points="327,-8 327,-141 554,-141 554,-8 327,-8"/>
<text text-anchor="middle" x="440.5" y="-125.8" font-family="Times,serif" font-size="14.00">Independent characterization</text>
</g>
<!-- activity -->
<g id="node1" class="node">
<title>activity</title>
<path fill="#e8f1ec" stroke="#4d5963" d="M160,-110C160,-110 50,-110 50,-110 44,-110 38,-104 38,-98 38,-98 38,-86 38,-86 38,-80 44,-74 50,-74 50,-74 160,-74 160,-74 166,-74 172,-80 172,-86 172,-86 172,-98 172,-98 172,-104 166,-110 160,-110"/>
<text text-anchor="middle" x="105" y="-95" font-family="DejaVu Sans" font-size="10.00">Spine or GraSU/ReGraph</text>
<text text-anchor="middle" x="105" y="-84" font-family="DejaVu Sans" font-size="10.00">cycle/FIFO/array activity</text>
</g>
<!-- cacti -->
<g id="node3" class="node">
<title>cacti</title>
<path fill="#f8f0e5" stroke="#4d5963" d="M522.5,-110C522.5,-110 358.5,-110 358.5,-110 352.5,-110 346.5,-104 346.5,-98 346.5,-98 346.5,-86 346.5,-86 346.5,-80 352.5,-74 358.5,-74 358.5,-74 522.5,-74 522.5,-74 528.5,-74 534.5,-80 534.5,-86 534.5,-86 534.5,-98 534.5,-98 534.5,-104 528.5,-110 522.5,-110"/>
<text text-anchor="middle" x="440.5" y="-95" font-family="DejaVu Sans" font-size="10.00">CACTI&#45;P 6.5</text>
<text text-anchor="middle" x="440.5" y="-84" font-family="DejaVu Sans" font-size="10.00">32 nm SRAM R/W + leakage + area</text>
</g>
<!-- activity&#45;&gt;cacti -->
<g id="edge1" class="edge">
<title>activity&#45;&gt;cacti</title>
<path fill="none" stroke="#66727b" d="M172.29,-92C219.92,-92 284.98,-92 338.98,-92"/>
<polygon fill="#66727b" stroke="#66727b" points="339.19,-94.45 346.19,-92 339.19,-89.55 339.19,-94.45"/>
<text text-anchor="middle" x="269" y="-94.8" font-family="DejaVu Sans" font-size="9.00">physical R/W counts</text>
</g>
<!-- axi -->
<g id="node2" class="node">
<title>axi</title>
<path fill="#e8f1ec" stroke="#4d5963" d="M156,-52C156,-52 54,-52 54,-52 48,-52 42,-46 42,-40 42,-40 42,-28 42,-28 42,-22 48,-16 54,-16 54,-16 156,-16 156,-16 162,-16 168,-22 168,-28 168,-28 168,-40 168,-40 168,-46 162,-52 156,-52"/>
<text text-anchor="middle" x="105" y="-37" font-family="DejaVu Sans" font-size="10.00">Shared AXI + SST&#45;HBM</text>
<text text-anchor="middle" x="105" y="-26" font-family="DejaVu Sans" font-size="10.00">request stream</text>
</g>
<!-- dram -->
<g id="node4" class="node">
<title>dram</title>
<path fill="#f8f0e5" stroke="#4d5963" d="M530,-52C530,-52 351,-52 351,-52 345,-52 339,-46 339,-40 339,-40 339,-28 339,-28 339,-22 345,-16 351,-16 351,-16 530,-16 530,-16 536,-16 542,-22 542,-28 542,-28 542,-40 542,-40 542,-46 536,-52 530,-52"/>
<text text-anchor="middle" x="440.5" y="-37" font-family="DejaVu Sans" font-size="10.00">DRAMSim3</text>
<text text-anchor="middle" x="440.5" y="-26" font-family="DejaVu Sans" font-size="10.00">HBM commands + background energy</text>
</g>
<!-- axi&#45;&gt;dram -->
<g id="edge2" class="edge">
<title>axi&#45;&gt;dram</title>
<path fill="none" stroke="#66727b" d="M168.34,-34C214.17,-34 277.6,-34 331.6,-34"/>
<polygon fill="#66727b" stroke="#66727b" points="331.81,-36.45 338.81,-34 331.81,-31.55 331.81,-36.45"/>
<text text-anchor="middle" x="269" y="-36.8" font-family="DejaVu Sans" font-size="9.00">accepted requests</text>
</g>
<!-- ledger -->
<g id="node5" class="node">
<title>ledger</title>
<path fill="#e9eef5" stroke="#4d5963" d="M856,-85.5C856,-85.5 695,-85.5 695,-85.5 689,-85.5 683,-79.5 683,-73.5 683,-73.5 683,-56.5 683,-56.5 683,-50.5 689,-44.5 695,-44.5 695,-44.5 856,-44.5 856,-44.5 862,-44.5 868,-50.5 868,-56.5 868,-56.5 868,-73.5 868,-73.5 868,-79.5 862,-85.5 856,-85.5"/>
<text text-anchor="middle" x="775.5" y="-73.5" font-family="DejaVu Sans" font-size="10.00">Hash&#45;pinned partial ledger</text>
<text text-anchor="middle" x="775.5" y="-62.5" font-family="DejaVu Sans" font-size="10.00">selected SRAM dynamic + leakage</text>
<text text-anchor="middle" x="775.5" y="-51.5" font-family="DejaVu Sans" font-size="10.00">+ HBM&#45;only energy</text>
</g>
<!-- cacti&#45;&gt;ledger -->
<g id="edge3" class="edge">
<title>cacti&#45;&gt;ledger</title>
<path fill="none" stroke="#66727b" d="M534.7,-84.44C578.63,-80.88 631.05,-76.63 675.67,-73.01"/>
<polygon fill="#66727b" stroke="#66727b" points="675.98,-75.45 682.76,-72.44 675.59,-70.56 675.98,-75.45"/>
<text text-anchor="middle" x="614.5" y="-83.8" font-family="DejaVu Sans" font-size="9.00">pJ/access, mW, mm2</text>
</g>
<!-- dram&#45;&gt;ledger -->
<g id="edge4" class="edge">
<title>dram&#45;&gt;ledger</title>
<path fill="none" stroke="#66727b" d="M542.31,-43.39C584.57,-47.32 633.54,-51.88 675.59,-55.79"/>
<polygon fill="#66727b" stroke="#66727b" points="675.62,-58.26 682.82,-56.46 676.07,-53.38 675.62,-58.26"/>
<text text-anchor="middle" x="614.5" y="-56.8" font-family="DejaVu Sans" font-size="9.00">pJ; R+W closure</text>
</g>
<!-- boundary -->
<g id="node6" class="node">
<title>boundary</title>
<path fill="#f5e9e8" stroke="#8b5d59" d="M1152,-85.5C1152,-85.5 975,-85.5 975,-85.5 969,-85.5 963,-79.5 963,-73.5 963,-73.5 963,-56.5 963,-56.5 963,-50.5 969,-44.5 975,-44.5 975,-44.5 1152,-44.5 1152,-44.5 1158,-44.5 1164,-50.5 1164,-56.5 1164,-56.5 1164,-73.5 1164,-73.5 1164,-79.5 1158,-85.5 1152,-85.5"/>
<text text-anchor="middle" x="1063.5" y="-73.5" font-family="DejaVu Sans" font-size="10.00">Explicit omissions</text>
<text text-anchor="middle" x="1063.5" y="-62.5" font-family="DejaVu Sans" font-size="10.00">logic | AXI fabric | clocks | host | board</text>
<text text-anchor="middle" x="1063.5" y="-51.5" font-family="DejaVu Sans" font-size="10.00">not total accelerator energy</text>
</g>
<!-- ledger&#45;&gt;boundary -->
<g id="edge5" class="edge">
<title>ledger&#45;&gt;boundary</title>
<path fill="none" stroke="#66727b" d="M868.17,-65C896.04,-65 926.9,-65 955.67,-65"/>
<polygon fill="#66727b" stroke="#66727b" points="955.94,-67.45 962.94,-65 955.94,-62.55 955.94,-67.45"/>
<text text-anchor="middle" x="915.5" y="-67.8" font-family="DejaVu Sans" font-size="9.00">claim guard</text>
</g>
</g>
</svg>
