<?xml version="1.0" encoding="UTF-8" standalone="no"?>
<!DOCTYPE svg PUBLIC "-//W3C//DTD SVG 1.1//EN"
 "http://www.w3.org/Graphics/SVG/1.1/DTD/svg11.dtd">
<!-- Generated by graphviz version 2.42.4 (0)
 -->
<!-- Title: shared_comparison_workloads Pages: 1 -->
<svg width="1530pt" height="151pt"
 viewBox="0.00 0.00 1530.00 151.00" xmlns="http://www.w3.org/2000/svg" xmlns:xlink="http://www.w3.org/1999/xlink">
<g id="graph0" class="graph" transform="scale(1 1) rotate(0) translate(18 133)">
<title>shared_comparison_workloads</title>
<polygon fill="white" stroke="transparent" points="-18,18 -18,-133 1512,-133 1512,18 -18,18"/>
<!-- synthetic -->
<g id="node1" class="node">
<title>synthetic</title>
<path fill="#e8f2ec" stroke="#3f4a54" d="M371,-107.5C371,-107.5 242,-107.5 242,-107.5 236,-107.5 230,-101.5 230,-95.5 230,-95.5 230,-83.5 230,-83.5 230,-77.5 236,-71.5 242,-71.5 242,-71.5 371,-71.5 371,-71.5 377,-71.5 383,-77.5 383,-83.5 383,-83.5 383,-95.5 383,-95.5 383,-101.5 377,-107.5 371,-107.5"/>
<text text-anchor="middle" x="306.5" y="-92.5" font-family="Helvetica,sans-Serif" font-size="10.00">20 synthetic fixtures</text>
<text text-anchor="middle" x="306.5" y="-81.5" font-family="Helvetica,sans-Serif" font-size="10.00">10 calibration + 10 holdout</text>
</g>
<!-- manifest -->
<g id="node4" class="node">
<title>manifest</title>
<path fill="#fff3d9" stroke="#3f4a54" d="M694,-79C694,-79 559,-79 559,-79 553,-79 547,-73 547,-67 547,-67 547,-46 547,-46 547,-40 553,-34 559,-34 559,-34 694,-34 694,-34 700,-34 706,-40 706,-46 706,-46 706,-67 706,-67 706,-73 700,-79 694,-79"/>
<text text-anchor="middle" x="626.5" y="-65" font-family="Helvetica,sans-Serif" font-size="10.00">Frozen manifest</text>
<text text-anchor="middle" x="626.5" y="-54" font-family="Helvetica,sans-Serif" font-size="10.00">graph/update/profile hashes</text>
<text text-anchor="middle" x="626.5" y="-43" font-family="Helvetica,sans-Serif" font-size="10.00">73 system&#45;neutral run cases</text>
</g>
<!-- synthetic&#45;&gt;manifest -->
<g id="edge3" class="edge">
<title>synthetic&#45;&gt;manifest</title>
<path fill="none" stroke="#596773" d="M383.26,-81.64C430.37,-76.75 491.04,-70.45 539.88,-65.39"/>
<polygon fill="#596773" stroke="#596773" points="540.28,-67.81 546.99,-64.65 539.78,-62.93 540.28,-67.81"/>
</g>
<!-- raw -->
<g id="node2" class="node">
<title>raw</title>
<path fill="#eaf0f7" stroke="#3f4a54" d="M149,-41.5C149,-41.5 12,-41.5 12,-41.5 6,-41.5 0,-35.5 0,-29.5 0,-29.5 0,-17.5 0,-17.5 0,-11.5 6,-5.5 12,-5.5 12,-5.5 149,-5.5 149,-5.5 155,-5.5 161,-11.5 161,-17.5 161,-17.5 161,-29.5 161,-29.5 161,-35.5 155,-41.5 149,-41.5"/>
<text text-anchor="middle" x="80.5" y="-26.5" font-family="Helvetica,sans-Serif" font-size="10.00">3 raw MatrixMarket datasets</text>
<text text-anchor="middle" x="80.5" y="-15.5" font-family="Helvetica,sans-Serif" font-size="10.00">hash&#45;pinned source copies</text>
</g>
<!-- extract -->
<g id="node3" class="node">
<title>extract</title>
<path fill="#edf3f8" stroke="#3f4a54" d="M391,-46C391,-46 222,-46 222,-46 216,-46 210,-40 210,-34 210,-34 210,-13 210,-13 210,-7 216,-1 222,-1 222,-1 391,-1 391,-1 397,-1 403,-7 403,-13 403,-13 403,-34 403,-34 403,-40 397,-46 391,-46"/>
<text text-anchor="middle" x="306.5" y="-32" font-family="Helvetica,sans-Serif" font-size="10.00">Deterministic compact extraction</text>
<text text-anchor="middle" x="306.5" y="-21" font-family="Helvetica,sans-Serif" font-size="10.00">top&#45;128 sources, round&#45;robin edges</text>
<text text-anchor="middle" x="306.5" y="-10" font-family="Helvetica,sans-Serif" font-size="10.00">ID map + positive weights</text>
</g>
<!-- raw&#45;&gt;extract -->
<g id="edge1" class="edge">
<title>raw&#45;&gt;extract</title>
<path fill="none" stroke="#596773" d="M161.1,-23.5C174.49,-23.5 188.55,-23.5 202.43,-23.5"/>
<polygon fill="#596773" stroke="#596773" points="202.66,-25.95 209.66,-23.5 202.66,-21.05 202.66,-25.95"/>
</g>
<!-- extract&#45;&gt;manifest -->
<g id="edge2" class="edge">
<title>extract&#45;&gt;manifest</title>
<path fill="none" stroke="#596773" d="M403.34,-33.45C446.73,-37.95 497.62,-43.23 539.73,-47.6"/>
<polygon fill="#596773" stroke="#596773" points="539.74,-50.06 546.95,-48.35 540.24,-45.19 539.74,-50.06"/>
<text text-anchor="middle" x="475" y="-49.3" font-family="Helvetica,sans-Serif" font-size="9.00">3 compact real slices</text>
</g>
<!-- algorithms -->
<g id="node5" class="node">
<title>algorithms</title>
<path fill="#f7eee4" stroke="#3f4a54" d="M1033,-79C1033,-79 898,-79 898,-79 892,-79 886,-73 886,-67 886,-67 886,-46 886,-46 886,-40 892,-34 898,-34 898,-34 1033,-34 1033,-34 1039,-34 1045,-40 1045,-46 1045,-46 1045,-67 1045,-67 1045,-73 1039,-79 1033,-79"/>
<text text-anchor="middle" x="965.5" y="-65" font-family="Helvetica,sans-Serif" font-size="10.00">Shared Map&#45;Reduce policies</text>
<text text-anchor="middle" x="965.5" y="-54" font-family="Helvetica,sans-Serif" font-size="10.00">weighted dynamic SSSP</text>
<text text-anchor="middle" x="965.5" y="-43" font-family="Helvetica,sans-Serif" font-size="10.00">Full PR | residual PR</text>
</g>
<!-- manifest&#45;&gt;algorithms -->
<g id="edge4" class="edge">
<title>manifest&#45;&gt;algorithms</title>
<path fill="none" stroke="#596773" d="M706.09,-56.5C757.83,-56.5 825.58,-56.5 878.72,-56.5"/>
<polygon fill="#596773" stroke="#596773" points="878.79,-58.95 885.79,-56.5 878.79,-54.05 878.79,-58.95"/>
<text text-anchor="middle" x="796" y="-59.3" font-family="Helvetica,sans-Serif" font-size="9.00">identical bytes + parameters</text>
</g>
<!-- spine -->
<g id="node6" class="node">
<title>spine</title>
<path fill="#e8f2ec" stroke="#3f4a54" d="M1255,-115C1255,-115 1106,-115 1106,-115 1100,-115 1094,-109 1094,-103 1094,-103 1094,-82 1094,-82 1094,-76 1100,-70 1106,-70 1106,-70 1255,-70 1255,-70 1261,-70 1267,-76 1267,-82 1267,-82 1267,-103 1267,-103 1267,-109 1261,-115 1255,-115"/>
<text text-anchor="middle" x="1180.5" y="-101" font-family="Helvetica,sans-Serif" font-size="10.00">Spine</text>
<text text-anchor="middle" x="1180.5" y="-90" font-family="Helvetica,sans-Serif" font-size="10.00">native 141 MHz evidence</text>
<text text-anchor="middle" x="1180.5" y="-79" font-family="Helvetica,sans-Serif" font-size="10.00">normalized 150 MHz projection</text>
</g>
<!-- algorithms&#45;&gt;spine -->
<g id="edge5" class="edge">
<title>algorithms&#45;&gt;spine</title>
<path fill="none" stroke="#596773" d="M1045.21,-69.8C1058.73,-72.09 1072.9,-74.48 1086.75,-76.82"/>
<polygon fill="#596773" stroke="#596773" points="1086.65,-79.29 1093.96,-78.04 1087.46,-74.46 1086.65,-79.29"/>
</g>
<!-- grasu -->
<g id="node7" class="node">
<title>grasu</title>
<path fill="#eaf0f7" stroke="#3f4a54" d="M1252,-45C1252,-45 1109,-45 1109,-45 1103,-45 1097,-39 1097,-33 1097,-33 1097,-12 1097,-12 1097,-6 1103,0 1109,0 1109,0 1252,0 1252,0 1258,0 1264,-6 1264,-12 1264,-12 1264,-33 1264,-33 1264,-39 1258,-45 1252,-45"/>
<text text-anchor="middle" x="1180.5" y="-31" font-family="Helvetica,sans-Serif" font-size="10.00">GraSU + PMA&#45;native ReGraph</text>
<text text-anchor="middle" x="1180.5" y="-20" font-family="Helvetica,sans-Serif" font-size="10.00">normalized conversion&#45;free</text>
<text text-anchor="middle" x="1180.5" y="-9" font-family="Helvetica,sans-Serif" font-size="10.00">native conversion separate</text>
</g>
<!-- algorithms&#45;&gt;grasu -->
<g id="edge6" class="edge">
<title>algorithms&#45;&gt;grasu</title>
<path fill="none" stroke="#596773" d="M1045.21,-43.94C1059.67,-41.63 1074.87,-39.2 1089.63,-36.85"/>
<polygon fill="#596773" stroke="#596773" points="1090.31,-39.22 1096.83,-35.7 1089.53,-34.38 1090.31,-39.22"/>
</g>
<!-- gates -->
<g id="node8" class="node">
<title>gates</title>
<path fill="#f8e7e7" stroke="#3f4a54" d="M1482,-84.5C1482,-84.5 1328,-84.5 1328,-84.5 1322,-84.5 1316,-78.5 1316,-72.5 1316,-72.5 1316,-40.5 1316,-40.5 1316,-34.5 1322,-28.5 1328,-28.5 1328,-28.5 1482,-28.5 1482,-28.5 1488,-28.5 1494,-34.5 1494,-40.5 1494,-40.5 1494,-72.5 1494,-72.5 1494,-78.5 1488,-84.5 1482,-84.5"/>
<text text-anchor="middle" x="1405" y="-70.5" font-family="Helvetica,sans-Serif" font-size="10.00">Required next gate</text>
<text text-anchor="middle" x="1405" y="-59.5" font-family="Helvetica,sans-Serif" font-size="10.00">dual&#45;oracle correctness</text>
<text text-anchor="middle" x="1405" y="-48.5" font-family="Helvetica,sans-Serif" font-size="10.00">closed memory/protocol ledgers</text>
<text text-anchor="middle" x="1405" y="-37.5" font-family="Helvetica,sans-Serif" font-size="10.00">runtime + labeled clocks</text>
</g>
<!-- spine&#45;&gt;gates -->
<g id="edge7" class="edge">
<title>spine&#45;&gt;gates</title>
<path fill="none" stroke="#596773" d="M1267.21,-78.63C1280.76,-76.44 1294.85,-74.16 1308.6,-71.94"/>
<polygon fill="#596773" stroke="#596773" points="1309.24,-74.31 1315.76,-70.78 1308.46,-69.48 1309.24,-74.31"/>
</g>
<!-- grasu&#45;&gt;gates -->
<g id="edge8" class="edge">
<title>grasu&#45;&gt;gates</title>
<path fill="none" stroke="#596773" d="M1264.03,-35.11C1278.49,-37.32 1293.64,-39.64 1308.41,-41.89"/>
<polygon fill="#596773" stroke="#596773" points="1308.34,-44.36 1315.63,-43 1309.08,-39.52 1308.34,-44.36"/>
</g>
</g>
</svg>
