<?xml version="1.0" encoding="UTF-8" standalone="no"?>
<!DOCTYPE svg PUBLIC "-//W3C//DTD SVG 1.1//EN"
 "http://www.w3.org/Graphics/SVG/1.1/DTD/svg11.dtd">
<!-- Generated by graphviz version 2.42.4 (0)
 -->
<!-- Title: spine_axi_request_window Pages: 1 -->
<svg width="1284pt" height="266pt"
 viewBox="0.00 0.00 1283.80 265.80" xmlns="http://www.w3.org/2000/svg" xmlns:xlink="http://www.w3.org/1999/xlink">
<g id="graph0" class="graph" transform="scale(1 1) rotate(0) translate(14.4 251.4)">
<title>spine_axi_request_window</title>
<polygon fill="white" stroke="transparent" points="-14.4,14.4 -14.4,-251.4 1269.4,-251.4 1269.4,14.4 -14.4,14.4"/>
<g id="clust1" class="cluster">
<title>cluster_source</title>
<polygon fill="white" stroke="#4c78a8" points="0,-8 0,-229 209,-229 209,-8 0,-8"/>
<text text-anchor="middle" x="104.5" y="-213.8" font-family="Times,serif" font-size="14.00">Source&#45;faithful loop scopes</text>
</g>
<!-- level -->
<g id="node1" class="node">
<title>level</title>
<path fill="#e8f1fa" stroke="#333333" d="M162,-129C162,-129 46,-129 46,-129 40,-129 34,-123 34,-117 34,-117 34,-97 34,-97 34,-91 40,-85 46,-85 46,-85 162,-85 162,-85 168,-85 174,-91 174,-97 174,-97 174,-117 174,-117 174,-123 168,-129 162,-129"/>
<text text-anchor="middle" x="104" y="-116.2" font-family="DejaVu Sans" font-size="11.00">Level cache</text>
<text text-anchor="middle" x="104" y="-104.2" font-family="DejaVu Sans" font-size="11.00">32 families x 11 levels</text>
<text text-anchor="middle" x="104" y="-92.2" font-family="DejaVu Sans" font-size="11.00">serial scalar reads</text>
</g>
<!-- issue -->
<g id="node4" class="node">
<title>issue</title>
<path fill="#e8f5e9" stroke="#333333" d="M502,-126C502,-126 367,-126 367,-126 361,-126 355,-120 355,-114 355,-114 355,-102 355,-102 355,-96 361,-90 367,-90 367,-90 502,-90 502,-90 508,-90 514,-96 514,-102 514,-102 514,-114 514,-114 514,-120 508,-126 502,-126"/>
<text text-anchor="middle" x="434.5" y="-111.2" font-family="DejaVu Sans" font-size="11.00">Bounded request issue</text>
<text text-anchor="middle" x="434.5" y="-99.2" font-family="DejaVu Sans" font-size="11.00">transaction ID scoreboard</text>
</g>
<!-- level&#45;&gt;issue -->
<g id="edge1" class="edge">
<title>level&#45;&gt;issue</title>
<path fill="none" stroke="#555555" d="M174.26,-107.21C223.87,-107.36 291.08,-107.57 344.64,-107.73"/>
<polygon fill="#555555" stroke="#555555" points="344.81,-111.23 354.82,-107.76 344.83,-104.23 344.81,-111.23"/>
<text text-anchor="middle" x="278" y="-109.8" font-family="DejaVu Sans" font-size="9.00">one logical task at a time</text>
</g>
<!-- build -->
<g id="node2" class="node">
<title>build</title>
<path fill="#e8f1fa" stroke="#333333" d="M165,-198C165,-198 43,-198 43,-198 37,-198 31,-192 31,-186 31,-186 31,-166 31,-166 31,-160 37,-154 43,-154 43,-154 165,-154 165,-154 171,-154 177,-160 177,-166 177,-166 177,-186 177,-186 177,-192 171,-198 165,-198"/>
<text text-anchor="middle" x="104" y="-185.2" font-family="DejaVu Sans" font-size="11.00">Exact task construction</text>
<text text-anchor="middle" x="104" y="-173.2" font-family="DejaVu Sans" font-size="11.00">edge loop II=1</text>
<text text-anchor="middle" x="104" y="-161.2" font-family="DejaVu Sans" font-size="11.00">ordered consume</text>
</g>
<!-- build&#45;&gt;issue -->
<g id="edge2" class="edge">
<title>build&#45;&gt;issue</title>
<path fill="none" stroke="#555555" d="M177.27,-157.96C191.72,-154.52 206.82,-151.04 221,-148 261.43,-139.32 306.41,-130.7 344.54,-123.7"/>
<polygon fill="#555555" stroke="#555555" points="345.39,-127.11 354.59,-121.87 344.13,-120.22 345.39,-127.11"/>
<text text-anchor="middle" x="278" y="-150.8" font-family="DejaVu Sans" font-size="9.00">up to one edge/cycle</text>
</g>
<!-- replay -->
<g id="node3" class="node">
<title>replay</title>
<path fill="#e8f1fa" stroke="#333333" d="M151.5,-60C151.5,-60 56.5,-60 56.5,-60 50.5,-60 44.5,-54 44.5,-48 44.5,-48 44.5,-28 44.5,-28 44.5,-22 50.5,-16 56.5,-16 56.5,-16 151.5,-16 151.5,-16 157.5,-16 163.5,-22 163.5,-28 163.5,-28 163.5,-48 163.5,-48 163.5,-54 157.5,-60 151.5,-60"/>
<text text-anchor="middle" x="104" y="-47.2" font-family="DejaVu Sans" font-size="11.00">Exact replay</text>
<text text-anchor="middle" x="104" y="-35.2" font-family="DejaVu Sans" font-size="11.00">edge loop II=1</text>
<text text-anchor="middle" x="104" y="-23.2" font-family="DejaVu Sans" font-size="11.00">AXIS backpressure</text>
</g>
<!-- replay&#45;&gt;issue -->
<g id="edge3" class="edge">
<title>replay&#45;&gt;issue</title>
<path fill="none" stroke="#555555" d="M163.73,-50.51C214.15,-61.26 287.57,-76.9 345.09,-89.16"/>
<polygon fill="#555555" stroke="#555555" points="344.39,-92.59 354.9,-91.25 345.85,-85.74 344.39,-92.59"/>
<text text-anchor="middle" x="278" y="-87.8" font-family="DejaVu Sans" font-size="9.00">up to one edge/cycle</text>
</g>
<!-- axi -->
<g id="node5" class="node">
<title>axi</title>
<path fill="#fff3cd" stroke="#333333" d="M749,-131C749,-131 619,-131 619,-131 613,-131 607,-125 607,-119 607,-119 607,-99 607,-99 607,-93 613,-87 619,-87 619,-87 749,-87 749,-87 755,-87 761,-93 761,-99 761,-99 761,-119 761,-119 761,-125 755,-131 749,-131"/>
<text text-anchor="middle" x="684" y="-118.2" font-family="DejaVu Sans" font-size="11.00">Shared AXI model</text>
<text text-anchor="middle" x="684" y="-106.2" font-family="DejaVu Sans" font-size="11.00">burst split + outstanding</text>
<text text-anchor="middle" x="684" y="-94.2" font-family="DejaVu Sans" font-size="11.00">finite response FIFO</text>
</g>
<!-- issue&#45;&gt;axi -->
<g id="edge4" class="edge">
<title>issue&#45;&gt;axi</title>
<path fill="none" stroke="#555555" d="M514.15,-108.32C540.38,-108.42 569.75,-108.54 596.54,-108.65"/>
<polygon fill="#555555" stroke="#555555" points="596.65,-112.15 606.67,-108.69 596.68,-105.15 596.65,-112.15"/>
</g>
<!-- hbm -->
<g id="node6" class="node">
<title>hbm</title>
<path fill="#fde9d9" stroke="#333333" d="M981.5,-99C981.5,-99 861.5,-99 861.5,-99 855.5,-99 849.5,-93 849.5,-87 849.5,-87 849.5,-75 849.5,-75 849.5,-69 855.5,-63 861.5,-63 861.5,-63 981.5,-63 981.5,-63 987.5,-63 993.5,-69 993.5,-75 993.5,-75 993.5,-87 993.5,-87 993.5,-93 987.5,-99 981.5,-99"/>
<text text-anchor="middle" x="921.5" y="-84.2" font-family="DejaVu Sans" font-size="11.00">Online SST&#45;HBM</text>
<text text-anchor="middle" x="921.5" y="-72.2" font-family="DejaVu Sans" font-size="11.00">contention + row state</text>
</g>
<!-- axi&#45;&gt;hbm -->
<g id="edge5" class="edge">
<title>axi&#45;&gt;hbm</title>
<path fill="none" stroke="#555555" d="M729.31,-86.84C745.2,-80.02 763.52,-73.41 781,-70 799.69,-66.35 820.02,-65.96 839.23,-67.19"/>
<polygon fill="#555555" stroke="#555555" points="839.22,-70.7 849.47,-68 839.77,-63.72 839.22,-70.7"/>
<text text-anchor="middle" x="804" y="-72.8" font-family="DejaVu Sans" font-size="9.00">requests</text>
</g>
<!-- retire -->
<g id="node7" class="node">
<title>retire</title>
<path fill="#e8f5e9" stroke="#333333" d="M984,-160C984,-160 859,-160 859,-160 853,-160 847,-154 847,-148 847,-148 847,-136 847,-136 847,-130 853,-124 859,-124 859,-124 984,-124 984,-124 990,-124 996,-130 996,-136 996,-136 996,-148 996,-148 996,-154 990,-160 984,-160"/>
<text text-anchor="middle" x="921.5" y="-145.2" font-family="DejaVu Sans" font-size="11.00">Ordered response retire</text>
<text text-anchor="middle" x="921.5" y="-133.2" font-family="DejaVu Sans" font-size="11.00">payload&#45;authoritative</text>
</g>
<!-- axi&#45;&gt;retire -->
<g id="edge7" class="edge">
<title>axi&#45;&gt;retire</title>
<path fill="none" stroke="#555555" d="M761.13,-119.67C785.23,-123.04 811.99,-126.8 836.6,-130.24"/>
<polygon fill="#555555" stroke="#555555" points="836.25,-133.73 846.63,-131.65 837.22,-126.8 836.25,-133.73"/>
</g>
<!-- hbm&#45;&gt;axi -->
<g id="edge6" class="edge">
<title>hbm&#45;&gt;axi</title>
<path fill="none" stroke="#555555" d="M849.42,-89.45C824.81,-92.38 796.94,-95.69 771.24,-98.75"/>
<polygon fill="#555555" stroke="#555555" points="770.65,-95.29 761.13,-99.95 771.48,-102.24 770.65,-95.29"/>
<text text-anchor="middle" x="804" y="-99.8" font-family="DejaVu Sans" font-size="9.00">responses</text>
</g>
<!-- retire&#45;&gt;build -->
<g id="edge8" class="edge">
<title>retire&#45;&gt;build</title>
<path fill="none" stroke="#555555" d="M846.74,-145.08C694.5,-151.42 346.43,-165.93 187.22,-172.57"/>
<polygon fill="#555555" stroke="#555555" points="186.86,-169.08 177.01,-173 187.15,-176.08 186.86,-169.08"/>
<text text-anchor="middle" x="560.5" y="-159.8" font-family="DejaVu Sans" font-size="9.00">ordered dst</text>
</g>
<!-- axis -->
<g id="node8" class="node">
<title>axis</title>
<path fill="#f3e8fd" stroke="#333333" d="M1243,-64C1243,-64 1102,-64 1102,-64 1096,-64 1090,-58 1090,-52 1090,-52 1090,-40 1090,-40 1090,-34 1096,-28 1102,-28 1102,-28 1243,-28 1243,-28 1249,-28 1255,-34 1255,-40 1255,-40 1255,-52 1255,-52 1255,-58 1249,-64 1243,-64"/>
<text text-anchor="middle" x="1172.5" y="-43.2" font-family="DejaVu Sans" font-size="11.00">Finite reader&#45;compute AXIS</text>
</g>
<!-- retire&#45;&gt;axis -->
<g id="edge9" class="edge">
<title>retire&#45;&gt;axis</title>
<path fill="none" stroke="#555555" d="M969.33,-123.94C1010.68,-108 1071.04,-84.73 1115.05,-67.77"/>
<polygon fill="#555555" stroke="#555555" points="1116.38,-71 1124.45,-64.14 1113.86,-64.47 1116.38,-71"/>
<text text-anchor="middle" x="1043" y="-107.8" font-family="DejaVu Sans" font-size="9.00">replay edge</text>
</g>
<!-- axis&#45;&gt;replay -->
<g id="edge10" class="edge">
<title>axis&#45;&gt;replay</title>
<path fill="none" stroke="#555555" stroke-dasharray="5,2" d="M1089.78,-35.62C1041.25,-30.33 978.46,-25 922.5,-25 433.5,-25 433.5,-25 433.5,-25 343.84,-25 240.51,-29.9 174.06,-33.68"/>
<polygon fill="#555555" stroke="#555555" points="173.5,-30.2 163.72,-34.27 173.9,-37.19 173.5,-30.2"/>
<text text-anchor="middle" x="684" y="-27.8" font-family="DejaVu Sans" font-size="9.00">ready/backpressure</text>
</g>
</g>
</svg>
