<?xml version="1.0" encoding="UTF-8" standalone="no"?>
<!DOCTYPE svg PUBLIC "-//W3C//DTD SVG 1.1//EN"
 "http://www.w3.org/Graphics/SVG/1.1/DTD/svg11.dtd">
<!-- Generated by graphviz version 2.42.4 (0)
 -->
<!-- Title: spine_epoch_lifecycle Pages: 1 -->
<svg width="1482pt" height="129pt"
 viewBox="0.00 0.00 1481.80 128.80" xmlns="http://www.w3.org/2000/svg" xmlns:xlink="http://www.w3.org/1999/xlink">
<g id="graph0" class="graph" transform="scale(1 1) rotate(0) translate(14.4 114.4)">
<title>spine_epoch_lifecycle</title>
<polygon fill="white" stroke="transparent" points="-14.4,14.4 -14.4,-114.4 1467.4,-114.4 1467.4,14.4 -14.4,14.4"/>
<!-- select -->
<g id="node1" class="node">
<title>select</title>
<path fill="#dbeafe" stroke="#334155" d="M101,-69C101,-69 12,-69 12,-69 6,-69 0,-63 0,-57 0,-57 0,-45 0,-45 0,-39 6,-33 12,-33 12,-33 101,-33 101,-33 107,-33 113,-39 113,-45 113,-45 113,-57 113,-57 113,-63 107,-69 101,-69"/>
<text text-anchor="middle" x="56.5" y="-54" font-family="DejaVu Sans" font-size="10.00">active family writer</text>
<text text-anchor="middle" x="56.5" y="-43" font-family="DejaVu Sans" font-size="10.00">L0 or carry</text>
</g>
<!-- read -->
<g id="node2" class="node">
<title>read</title>
<path fill="#e0e7ff" stroke="#334155" d="M256,-69C256,-69 166,-69 166,-69 160,-69 154,-63 154,-57 154,-57 154,-45 154,-45 154,-39 160,-33 166,-33 166,-33 256,-33 256,-33 262,-33 268,-39 268,-45 268,-45 268,-57 268,-57 268,-63 262,-69 256,-69"/>
<text text-anchor="middle" x="211" y="-54" font-family="DejaVu Sans" font-size="10.00">gmem_meta read</text>
<text text-anchor="middle" x="211" y="-43" font-family="DejaVu Sans" font-size="10.00">packed slice epochs</text>
</g>
<!-- select&#45;&gt;read -->
<g id="edge1" class="edge">
<title>select&#45;&gt;read</title>
<path fill="none" stroke="#475569" d="M113.42,-51C123.3,-51 133.67,-51 143.81,-51"/>
<polygon fill="#475569" stroke="#475569" points="143.83,-54.5 153.83,-51 143.83,-47.5 143.83,-54.5"/>
</g>
<!-- increment -->
<g id="node3" class="node">
<title>increment</title>
<path fill="#fef3c7" stroke="#334155" d="M404,-69C404,-69 321,-69 321,-69 315,-69 309,-63 309,-57 309,-57 309,-45 309,-45 309,-39 315,-33 321,-33 321,-33 404,-33 404,-33 410,-33 416,-39 416,-45 416,-45 416,-57 416,-57 416,-63 410,-69 404,-69"/>
<text text-anchor="middle" x="362.5" y="-54" font-family="DejaVu Sans" font-size="10.00">next = current + 1</text>
<text text-anchor="middle" x="362.5" y="-43" font-family="DejaVu Sans" font-size="10.00">zero is reserved</text>
</g>
<!-- read&#45;&gt;increment -->
<g id="edge2" class="edge">
<title>read&#45;&gt;increment</title>
<path fill="none" stroke="#475569" d="M268.09,-51C277.93,-51 288.23,-51 298.25,-51"/>
<polygon fill="#475569" stroke="#475569" points="298.56,-54.5 308.56,-51 298.56,-47.5 298.56,-54.5"/>
</g>
<!-- clear -->
<g id="node4" class="node">
<title>clear</title>
<path fill="#fee2e2" stroke="#334155" d="M651,-100C651,-100 491,-100 491,-100 485,-100 479,-94 479,-88 479,-88 479,-76 479,-76 479,-70 485,-64 491,-64 491,-64 651,-64 651,-64 657,-64 663,-70 663,-76 663,-76 663,-88 663,-88 663,-94 657,-100 651,-100"/>
<text text-anchor="middle" x="571" y="-85" font-family="DejaVu Sans" font-size="10.00">four graph&#45;HBM zero writes</text>
<text text-anchor="middle" x="571" y="-74" font-family="DejaVu Sans" font-size="10.00">bitmap / page base / rows / masks</text>
</g>
<!-- increment&#45;&gt;clear -->
<g id="edge4" class="edge">
<title>increment&#45;&gt;clear</title>
<path fill="none" stroke="#475569" d="M416.14,-58.9C432.27,-61.32 450.6,-64.07 468.83,-66.81"/>
<polygon fill="#475569" stroke="#475569" points="468.53,-70.31 478.94,-68.33 469.57,-63.38 468.53,-70.31"/>
<text text-anchor="middle" x="447.5" y="-66.8" font-family="DejaVu Sans" font-size="9.00">wrap</text>
</g>
<!-- write -->
<g id="node5" class="node">
<title>write</title>
<path fill="#dbeafe" stroke="#334155" d="M856,-64C856,-64 716,-64 716,-64 710,-64 704,-58 704,-52 704,-52 704,-40 704,-40 704,-34 710,-28 716,-28 716,-28 856,-28 856,-28 862,-28 868,-34 868,-40 868,-40 868,-52 868,-52 868,-58 862,-64 856,-64"/>
<text text-anchor="middle" x="786" y="-49" font-family="DejaVu Sans" font-size="10.00">writer uses prepared epoch</text>
<text text-anchor="middle" x="786" y="-38" font-family="DejaVu Sans" font-size="10.00">page stamps + graph payload</text>
</g>
<!-- increment&#45;&gt;write -->
<g id="edge3" class="edge">
<title>increment&#45;&gt;write</title>
<path fill="none" stroke="#475569" d="M416.07,-46.59C435.79,-45.14 458.41,-43.71 479,-43 551.03,-40.51 632.64,-41.5 693.46,-42.98"/>
<polygon fill="#475569" stroke="#475569" points="693.71,-46.49 703.8,-43.24 693.89,-39.49 693.71,-46.49"/>
<text text-anchor="middle" x="571" y="-45.8" font-family="DejaVu Sans" font-size="9.00">next != 0</text>
</g>
<!-- clear&#45;&gt;write -->
<g id="edge5" class="edge">
<title>clear&#45;&gt;write</title>
<path fill="none" stroke="#475569" d="M663.26,-66.58C673.34,-64.87 683.6,-63.14 693.68,-61.43"/>
<polygon fill="#475569" stroke="#475569" points="694.4,-64.86 703.68,-59.74 693.24,-57.96 694.4,-64.86"/>
</g>
<!-- stage -->
<g id="node6" class="node">
<title>stage</title>
<path fill="#fef3c7" stroke="#334155" d="M1039,-64C1039,-64 921,-64 921,-64 915,-64 909,-58 909,-52 909,-52 909,-40 909,-40 909,-34 915,-28 921,-28 921,-28 1039,-28 1039,-28 1045,-28 1051,-34 1051,-40 1051,-40 1051,-52 1051,-52 1051,-58 1045,-64 1039,-64"/>
<text text-anchor="middle" x="980" y="-49" font-family="DejaVu Sans" font-size="10.00">stage slice commit</text>
<text text-anchor="middle" x="980" y="-38" font-family="DejaVu Sans" font-size="10.00">epoch, counts, occupancy</text>
</g>
<!-- write&#45;&gt;stage -->
<g id="edge6" class="edge">
<title>write&#45;&gt;stage</title>
<path fill="none" stroke="#475569" d="M868.15,-46C878.28,-46 888.64,-46 898.76,-46"/>
<polygon fill="#475569" stroke="#475569" points="898.78,-49.5 908.78,-46 898.78,-42.5 898.78,-49.5"/>
</g>
<!-- publish -->
<g id="node7" class="node">
<title>publish</title>
<path fill="#dcfce7" stroke="#334155" d="M1245,-94C1245,-94 1138,-94 1138,-94 1132,-94 1126,-88 1126,-82 1126,-82 1126,-70 1126,-70 1126,-64 1132,-58 1138,-58 1138,-58 1245,-58 1245,-58 1251,-58 1257,-64 1257,-70 1257,-70 1257,-82 1257,-82 1257,-88 1251,-94 1245,-94"/>
<text text-anchor="middle" x="1191.5" y="-79" font-family="DejaVu Sans" font-size="10.00">success</text>
<text text-anchor="middle" x="1191.5" y="-68" font-family="DejaVu Sans" font-size="10.00">publish occupied epoch</text>
</g>
<!-- stage&#45;&gt;publish -->
<g id="edge7" class="edge">
<title>stage&#45;&gt;publish</title>
<path fill="none" stroke="#475569" d="M1051.05,-56.03C1071.8,-59 1094.6,-62.27 1115.65,-65.28"/>
<polygon fill="#475569" stroke="#475569" points="1115.42,-68.78 1125.82,-66.74 1116.42,-61.86 1115.42,-68.78"/>
<text text-anchor="middle" x="1088.5" y="-65.8" font-family="DejaVu Sans" font-size="9.00">commit</text>
</g>
<!-- retire -->
<g id="node8" class="node">
<title>retire</title>
<path fill="#fee2e2" stroke="#334155" d="M1245,-36C1245,-36 1138,-36 1138,-36 1132,-36 1126,-30 1126,-24 1126,-24 1126,-12 1126,-12 1126,-6 1132,0 1138,0 1138,0 1245,0 1245,0 1251,0 1257,-6 1257,-12 1257,-12 1257,-24 1257,-24 1257,-30 1251,-36 1245,-36"/>
<text text-anchor="middle" x="1191.5" y="-21" font-family="DejaVu Sans" font-size="10.00">overflow</text>
<text text-anchor="middle" x="1191.5" y="-10" font-family="DejaVu Sans" font-size="10.00">burn staged epoch only</text>
</g>
<!-- stage&#45;&gt;retire -->
<g id="edge8" class="edge">
<title>stage&#45;&gt;retire</title>
<path fill="none" stroke="#475569" d="M1051.24,-35.73C1057.92,-34.79 1064.59,-33.87 1071,-33 1085.48,-31.05 1100.96,-29.04 1115.81,-27.16"/>
<polygon fill="#475569" stroke="#475569" points="1116.49,-30.6 1125.97,-25.88 1115.61,-23.66 1116.49,-30.6"/>
<text text-anchor="middle" x="1088.5" y="-35.8" font-family="DejaVu Sans" font-size="9.00">failure</text>
</g>
<!-- result -->
<g id="node9" class="node">
<title>result</title>
<path fill="#e0e7ff" stroke="#334155" d="M1441,-64C1441,-64 1310,-64 1310,-64 1304,-64 1298,-58 1298,-52 1298,-52 1298,-40 1298,-40 1298,-34 1304,-28 1310,-28 1310,-28 1441,-28 1441,-28 1447,-28 1453,-34 1453,-40 1453,-40 1453,-52 1453,-52 1453,-58 1447,-64 1441,-64"/>
<text text-anchor="middle" x="1375.5" y="-49" font-family="DejaVu Sans" font-size="10.00">result words 34&#45;36</text>
<text text-anchor="middle" x="1375.5" y="-38" font-family="DejaVu Sans" font-size="10.00">clear / wrap / commit failure</text>
</g>
<!-- publish&#45;&gt;result -->
<g id="edge9" class="edge">
<title>publish&#45;&gt;result</title>
<path fill="none" stroke="#475569" d="M1257.18,-65.34C1267.17,-63.69 1277.62,-61.97 1287.99,-60.26"/>
<polygon fill="#475569" stroke="#475569" points="1288.6,-63.71 1297.89,-58.63 1287.46,-56.8 1288.6,-63.71"/>
</g>
<!-- retire&#45;&gt;result -->
<g id="edge10" class="edge">
<title>retire&#45;&gt;result</title>
<path fill="none" stroke="#475569" d="M1257.18,-27.95C1267.17,-29.49 1277.62,-31.1 1287.99,-32.69"/>
<polygon fill="#475569" stroke="#475569" points="1287.48,-36.15 1297.89,-34.21 1288.54,-29.23 1287.48,-36.15"/>
</g>
</g>
</svg>
