<?xml version="1.0" encoding="UTF-8" standalone="no"?>
<!DOCTYPE svg PUBLIC "-//W3C//DTD SVG 1.1//EN"
 "http://www.w3.org/Graphics/SVG/1.1/DTD/svg11.dtd">
<!-- Generated by graphviz version 2.42.4 (0)
 -->
<!-- Title: TimedFullPageRankCompute Pages: 1 -->
<svg width="1330pt" height="410pt"
 viewBox="0.00 0.00 1330.00 410.00" xmlns="http://www.w3.org/2000/svg" xmlns:xlink="http://www.w3.org/1999/xlink">
<g id="graph0" class="graph" transform="scale(1 1) rotate(0) translate(18 392)">
<title>TimedFullPageRankCompute</title>
<polygon fill="white" stroke="transparent" points="-18,18 -18,-392 1312,-392 1312,18 -18,18"/>
<!-- reader -->
<g id="node1" class="node">
<title>reader</title>
<path fill="#dbeafe" stroke="#374151" d="M158,-112C158,-112 12,-112 12,-112 6,-112 0,-106 0,-100 0,-100 0,-88 0,-88 0,-82 6,-76 12,-76 12,-76 158,-76 158,-76 164,-76 170,-82 170,-88 170,-88 170,-100 170,-100 170,-106 164,-112 158,-112"/>
<text text-anchor="middle" x="85" y="-97" font-family="Helvetica,sans-Serif" font-size="10.00">Spine Reader protocol</text>
<text text-anchor="middle" x="85" y="-86" font-family="Helvetica,sans-Serif" font-size="10.00">source IDs + tiled contributions</text>
</g>
<!-- axi -->
<g id="node2" class="node">
<title>axi</title>
<path fill="#fee2e2" stroke="#374151" d="M482,-219C482,-219 306,-219 306,-219 300,-219 294,-213 294,-207 294,-207 294,-195 294,-195 294,-189 300,-183 306,-183 306,-183 482,-183 482,-183 488,-183 494,-189 494,-195 494,-195 494,-207 494,-207 494,-213 488,-219 482,-219"/>
<text text-anchor="middle" x="394" y="-204" font-family="Helvetica,sans-Serif" font-size="10.00">One vertex&#45;state AXI master</text>
<text text-anchor="middle" x="394" y="-193" font-family="Helvetica,sans-Serif" font-size="10.00">finite requests/outstanding/responses</text>
</g>
<!-- reader&#45;&gt;axi -->
<g id="edge1" class="edge">
<title>reader&#45;&gt;axi</title>
<path fill="none" stroke="#475569" d="M137.73,-112.03C191.28,-130.69 274.91,-159.84 331.73,-179.65"/>
<polygon fill="#475569" stroke="#475569" points="330.72,-183 341.31,-182.99 333.02,-176.39 330.72,-183"/>
<text text-anchor="middle" x="232" y="-160.8" font-family="Helvetica,sans-Serif" font-size="9.00">source request</text>
</g>
<!-- reduce -->
<g id="node7" class="node">
<title>reduce</title>
<path fill="#dcfce7" stroke="#374151" d="M456.5,-36C456.5,-36 331.5,-36 331.5,-36 325.5,-36 319.5,-30 319.5,-24 319.5,-24 319.5,-12 319.5,-12 319.5,-6 325.5,0 331.5,0 331.5,0 456.5,0 456.5,0 462.5,0 468.5,-6 468.5,-12 468.5,-12 468.5,-24 468.5,-24 468.5,-30 462.5,-36 456.5,-36"/>
<text text-anchor="middle" x="394" y="-21" font-family="Helvetica,sans-Serif" font-size="10.00">Finite edge reduce pipeline</text>
<text text-anchor="middle" x="394" y="-10" font-family="Helvetica,sans-Serif" font-size="10.00">FP accumulation</text>
</g>
<!-- reader&#45;&gt;reduce -->
<g id="edge6" class="edge">
<title>reader&#45;&gt;reduce</title>
<path fill="none" stroke="#475569" d="M142.16,-75.96C157.89,-71.16 175.05,-66.16 191,-62 229.57,-51.94 272.69,-42.33 309.16,-34.67"/>
<polygon fill="#475569" stroke="#475569" points="310.18,-38.03 319.26,-32.56 308.75,-31.18 310.18,-38.03"/>
<text text-anchor="middle" x="232" y="-64.8" font-family="Helvetica,sans-Serif" font-size="9.00">edge contribution</text>
</g>
<!-- hbm -->
<g id="node3" class="node">
<title>hbm</title>
<path fill="#fef3c7" stroke="#374151" d="M751,-245.98C751,-248.06 717.61,-249.75 676.5,-249.75 635.39,-249.75 602,-248.06 602,-245.98 602,-245.98 602,-212.02 602,-212.02 602,-209.94 635.39,-208.25 676.5,-208.25 717.61,-208.25 751,-209.94 751,-212.02 751,-212.02 751,-245.98 751,-245.98"/>
<path fill="none" stroke="#374151" d="M751,-245.98C751,-243.9 717.61,-242.21 676.5,-242.21 635.39,-242.21 602,-243.9 602,-245.98"/>
<text text-anchor="middle" x="676.5" y="-232" font-family="Helvetica,sans-Serif" font-size="10.00">Mock or SST HBM channel</text>
<text text-anchor="middle" x="676.5" y="-221" font-family="Helvetica,sans-Serif" font-size="10.00">rank current/next + degree</text>
</g>
<!-- axi&#45;&gt;hbm -->
<g id="edge2" class="edge">
<title>axi&#45;&gt;hbm</title>
<path fill="none" stroke="#475569" d="M504.35,-211.92C533.48,-214.82 564.48,-217.92 591.98,-220.66"/>
<polygon fill="#475569" stroke="#475569" points="504.59,-208.42 494.29,-210.91 503.89,-215.39 504.59,-208.42"/>
<polygon fill="#475569" stroke="#475569" points="591.64,-224.15 601.94,-221.66 592.34,-217.18 591.64,-224.15"/>
</g>
<!-- source -->
<g id="node4" class="node">
<title>source</title>
<path fill="#dcfce7" stroke="#374151" d="M737.5,-120C737.5,-120 615.5,-120 615.5,-120 609.5,-120 603.5,-114 603.5,-108 603.5,-108 603.5,-96 603.5,-96 603.5,-90 609.5,-84 615.5,-84 615.5,-84 737.5,-84 737.5,-84 743.5,-84 749.5,-90 749.5,-96 749.5,-96 749.5,-108 749.5,-108 749.5,-114 743.5,-120 737.5,-120"/>
<text text-anchor="middle" x="676.5" y="-105" font-family="Helvetica,sans-Serif" font-size="10.00">Finite source&#45;map pipeline</text>
<text text-anchor="middle" x="676.5" y="-94" font-family="Helvetica,sans-Serif" font-size="10.00">rank / degree + damping</text>
</g>
<!-- axi&#45;&gt;source -->
<g id="edge3" class="edge">
<title>axi&#45;&gt;source</title>
<path fill="none" stroke="#475569" d="M427.84,-182.91C451.54,-170.42 484.57,-154.11 515,-143 540.04,-133.85 567.99,-125.96 593.46,-119.6"/>
<polygon fill="#475569" stroke="#475569" points="594.58,-122.93 603.46,-117.15 592.91,-116.13 594.58,-122.93"/>
<text text-anchor="middle" x="548" y="-145.8" font-family="Helvetica,sans-Serif" font-size="9.00">rank + degree</text>
</g>
<!-- apply -->
<g id="node8" class="node">
<title>apply</title>
<path fill="#dcfce7" stroke="#374151" d="M1282,-166C1282,-166 1141,-166 1141,-166 1135,-166 1129,-160 1129,-154 1129,-154 1129,-142 1129,-142 1129,-136 1135,-130 1141,-130 1141,-130 1282,-130 1282,-130 1288,-130 1294,-136 1294,-142 1294,-142 1294,-154 1294,-154 1294,-160 1288,-166 1282,-166"/>
<text text-anchor="middle" x="1211.5" y="-151" font-family="Helvetica,sans-Serif" font-size="10.00">Finite all&#45;vertex apply pipeline</text>
<text text-anchor="middle" x="1211.5" y="-140" font-family="Helvetica,sans-Serif" font-size="10.00">base + dangling + incoming</text>
</g>
<!-- axi&#45;&gt;apply -->
<g id="edge9" class="edge">
<title>axi&#45;&gt;apply</title>
<path fill="none" stroke="#475569" d="M494.18,-194.55C653.42,-184.21 963.85,-164.03 1118.44,-153.98"/>
<polygon fill="#475569" stroke="#475569" points="1119.09,-157.45 1128.84,-153.31 1118.64,-150.46 1119.09,-157.45"/>
<text text-anchor="middle" x="836" y="-178.8" font-family="Helvetica,sans-Serif" font-size="9.00">old rank</text>
</g>
<!-- result -->
<g id="node9" class="node">
<title>result</title>
<path fill="#fef3c7" stroke="#374151" d="M739,-374C739,-374 614,-374 614,-374 608,-374 602,-368 602,-362 602,-362 602,-350 602,-350 602,-344 608,-338 614,-338 614,-338 739,-338 739,-338 745,-338 751,-344 751,-350 751,-350 751,-362 751,-362 751,-368 745,-374 739,-374"/>
<text text-anchor="middle" x="676.5" y="-359" font-family="Helvetica,sans-Serif" font-size="10.00">Ping&#45;pong next&#45;rank region</text>
<text text-anchor="middle" x="676.5" y="-348" font-family="Helvetica,sans-Serif" font-size="10.00">HBM payload + error sum</text>
</g>
<!-- axi&#45;&gt;result -->
<g id="edge12" class="edge">
<title>axi&#45;&gt;result</title>
<path fill="none" stroke="#475569" d="M408.76,-219.18C429.13,-244.77 469.78,-291.05 515,-316 538.42,-328.92 566.04,-337.73 591.71,-343.72"/>
<polygon fill="#475569" stroke="#475569" points="591.29,-347.21 601.81,-345.96 592.81,-340.38 591.29,-347.21"/>
</g>
<!-- source&#45;&gt;reader -->
<g id="edge5" class="edge">
<title>source&#45;&gt;reader</title>
<path fill="none" stroke="#475569" d="M603.16,-101.02C496.75,-99.57 297.93,-96.88 180.23,-95.28"/>
<polygon fill="#475569" stroke="#475569" points="180.19,-91.78 170.15,-95.14 180.1,-98.78 180.19,-91.78"/>
<text text-anchor="middle" x="394" y="-102.8" font-family="Helvetica,sans-Serif" font-size="9.00">edge payload</text>
</g>
<!-- dangling -->
<g id="node5" class="node">
<title>dangling</title>
<path fill="#dcfce7" stroke="#374151" d="M1050,-120C1050,-120 933,-120 933,-120 927,-120 921,-114 921,-108 921,-108 921,-96 921,-96 921,-90 927,-84 933,-84 933,-84 1050,-84 1050,-84 1056,-84 1062,-90 1062,-96 1062,-96 1062,-108 1062,-108 1062,-114 1056,-120 1050,-120"/>
<text text-anchor="middle" x="991.5" y="-105" font-family="Helvetica,sans-Serif" font-size="10.00">Finite dangling reduce</text>
<text text-anchor="middle" x="991.5" y="-94" font-family="Helvetica,sans-Serif" font-size="10.00">mass &#45;&gt; per&#45;vertex share</text>
</g>
<!-- source&#45;&gt;dangling -->
<g id="edge4" class="edge">
<title>source&#45;&gt;dangling</title>
<path fill="none" stroke="#475569" d="M749.7,-102C797.84,-102 861.14,-102 910.76,-102"/>
<polygon fill="#475569" stroke="#475569" points="910.81,-105.5 920.81,-102 910.81,-98.5 910.81,-105.5"/>
</g>
<!-- dangling&#45;&gt;apply -->
<g id="edge10" class="edge">
<title>dangling&#45;&gt;apply</title>
<path fill="none" stroke="#475569" d="M1062.08,-116.68C1080.11,-120.49 1099.82,-124.65 1118.8,-128.65"/>
<polygon fill="#475569" stroke="#475569" points="1118.15,-132.09 1128.65,-130.73 1119.59,-125.24 1118.15,-132.09"/>
<text text-anchor="middle" x="1095.5" y="-127.8" font-family="Helvetica,sans-Serif" font-size="9.00">share</text>
</g>
<!-- tile -->
<g id="node6" class="node">
<title>tile</title>
<path fill="#e0f2fe" stroke="#374151" d="M888,-49C888,-49 784,-49 784,-49 778,-49 772,-43 772,-37 772,-37 772,-25 772,-25 772,-19 778,-13 784,-13 784,-13 888,-13 888,-13 894,-13 900,-19 900,-25 900,-25 900,-37 900,-37 900,-43 894,-49 888,-49"/>
<text text-anchor="middle" x="836" y="-34" font-family="Helvetica,sans-Serif" font-size="10.00">Per&#45;tile accumulator</text>
<text text-anchor="middle" x="836" y="-23" font-family="Helvetica,sans-Serif" font-size="10.00">destination scoreboard</text>
</g>
<!-- tile&#45;&gt;apply -->
<g id="edge8" class="edge">
<title>tile&#45;&gt;apply</title>
<path fill="none" stroke="#475569" d="M900.16,-31.9C946.15,-34.21 1009.34,-40.85 1062,-59 1105.52,-74 1150.12,-102.91 1178.93,-123.71"/>
<polygon fill="#475569" stroke="#475569" points="1177.21,-126.79 1187.34,-129.88 1181.35,-121.15 1177.21,-126.79"/>
<text text-anchor="middle" x="991.5" y="-61.8" font-family="Helvetica,sans-Serif" font-size="9.00">incoming sum</text>
</g>
<!-- reduce&#45;&gt;tile -->
<g id="edge7" class="edge">
<title>reduce&#45;&gt;tile</title>
<path fill="none" stroke="#475569" d="M468.65,-20.18C550.06,-22.58 680.4,-26.43 761.68,-28.83"/>
<polygon fill="#475569" stroke="#475569" points="761.73,-32.34 771.83,-29.13 761.94,-25.34 761.73,-32.34"/>
</g>
<!-- apply&#45;&gt;axi -->
<g id="edge11" class="edge">
<title>apply&#45;&gt;axi</title>
<path fill="none" stroke="#475569" d="M1167.93,-166.09C1069.03,-205.93 815.89,-295.28 602,-264 549.01,-256.25 490.84,-237.59 449.69,-222.58"/>
<polygon fill="#475569" stroke="#475569" points="450.73,-219.23 440.14,-219.05 448.3,-225.8 450.73,-219.23"/>
<text text-anchor="middle" x="836" y="-268.8" font-family="Helvetica,sans-Serif" font-size="9.00">next&#45;rank write</text>
</g>
</g>
</svg>
